<?xml version="1.0" standalone="no"?>
<!DOCTYPE svg PUBLIC "-//W3C//DTD SVG 1.1//EN" "http://www.w3.org/Graphics/SVG/1.1/DTD/svg11.dtd" >
<svg xmlns="http://www.w3.org/2000/svg" xmlns:xlink="http://www.w3.org/1999/xlink" version="1.1">
<metadata>
Created by FontForge 20170731 at Thu Apr 13 03:30:30 2017
 By Aleksey,,,
(c) 2017 Itau' Intellectual Property. All rights reserved. Copyright (c) 2017 Itau'. Todos os direitos reservados.
</metadata>
<defs>
<font id="ItauDisplay-Light" horiz-adv-x="364" >
  <font-face 
    font-family="Itau Display Light"
    font-weight="300"
    font-stretch="normal"
    units-per-em="1000"
    panose-1="2 11 4 3 2 2 4 2 2 4"
    ascent="745"
    descent="-255"
    x-height="512"
    cap-height="675"
    bbox="-213 -257 1000 899"
    underline-thickness="68"
    underline-position="-219"
    unicode-range="U+0008-FEFF"
  />
<missing-glyph horiz-adv-x="500" 
d="M50 0v750h400v-750h-400zM100 50h300v650h-300v-650z" />
    <glyph glyph-name=".notdef" horiz-adv-x="500" 
d="M50 0v750h400v-750h-400zM100 50h300v650h-300v-650z" />
    <glyph glyph-name=".null" horiz-adv-x="0" 
 />
    <glyph glyph-name=".null" horiz-adv-x="0" 
 />
    <glyph glyph-name=".null" horiz-adv-x="0" 
 />
    <glyph glyph-name="nonmarkingreturn" unicode="&#x9;" horiz-adv-x="170" 
 />
    <glyph glyph-name="nonmarkingreturn" unicode="&#xd;" horiz-adv-x="170" 
 />
    <glyph glyph-name="space" unicode=" " horiz-adv-x="170" 
 />
    <glyph glyph-name="exclam" unicode="!" horiz-adv-x="233" 
d="M85 675h62l-7 -512h-48zM116 -6q-19 0 -32 13t-13 32q0 20 13 32.5t32 12.5q20 0 32.5 -12.5t12.5 -32.5q0 -19 -12.5 -32t-32.5 -13z" />
    <glyph glyph-name="quotedbl" unicode="&#x22;" horiz-adv-x="327" 
d="M70 433l-6 242h60l-6 -242h-48zM209 433l-6 242h60l-6 -242h-48z" />
    <glyph glyph-name="numbersign" unicode="#" horiz-adv-x="560" 
d="M326 190h-149l-36 -190h-52l36 190h-96v46h105l39 203h-107v46h116l36 190h52l-36 -190h149l36 190h52l-36 -190h96v-46h-105l-39 -203h107v-46h-116l-36 -190h-52zM186 236h149l39 203h-149z" />
    <glyph glyph-name="dollar" unicode="$" horiz-adv-x="560" 
d="M252 -6q-94 3 -171 47v59q88 -54 175 -54q77 0 121 34t44 96q0 51 -36 82.5t-129 61.5q-87 28 -124.5 71t-37.5 113q0 65 42.5 110t115.5 57v119h52v-115q80 -2 137 -38v-55q-62 42 -140 42q-70 0 -110 -31.5t-40 -87.5q0 -52 32.5 -82.5t110.5 -54.5q97 -30 141 -75
t44 -115q0 -74 -47.5 -122.5t-127.5 -58.5v-117h-52v114z" />
    <glyph glyph-name="percent" unicode="%" horiz-adv-x="773" 
d="M151 0l411 675h59l-411 -675h-59zM590 -13q-66 0 -105 53.5t-39 140.5q0 91 39.5 145t106.5 54q66 0 105 -53.5t39 -140.5q0 -91 -39.5 -145t-106.5 -54zM591 32q43 0 68 41.5t25 111.5q0 69 -25 109.5t-68 40.5t-68 -41.5t-25 -111.5q0 -69 25 -109.5t68 -40.5zM181 295
q-66 0 -105 53.5t-39 140.5q0 91 39.5 145t106.5 54q66 0 105 -53.5t39 -140.5q0 -91 -39.5 -145t-106.5 -54zM182 340q43 0 68 41.5t25 111.5q0 69 -25 109.5t-68 40.5t-68 -41.5t-25 -111.5q0 -69 25 -109.5t68 -40.5z" />
    <glyph glyph-name="ampersand" unicode="&#x26;" horiz-adv-x="595" 
d="M491 0l-47 56q-80 -69 -194 -69q-99 0 -159 47.5t-60 125.5q0 62 39 116t115 97q-41 52 -59.5 92t-18.5 79q0 63 42 103.5t108 40.5q69 0 113 -40t44 -103q0 -51 -39.5 -100t-109.5 -86l181 -219q53 80 53 198h57q0 -72 -19 -133.5t-55 -107.5l81 -97h-72zM254 39
q92 0 156 59l-194 237q-61 -35 -93.5 -79t-32.5 -91q0 -59 43 -92.5t121 -33.5zM164 548q0 -34 16.5 -69t54.5 -83q59 31 91.5 70t32.5 79t-29 66.5t-73 26.5q-42 0 -67.5 -24.5t-25.5 -65.5z" />
    <glyph glyph-name="quotesingle" unicode="'" horiz-adv-x="188" 
d="M70 433l-6 242h60l-6 -242h-48z" />
    <glyph glyph-name="parenleft" unicode="(" horiz-adv-x="272" 
d="M191 -124q-64 80 -100 185t-36 214t35.5 214.5t100.5 185.5h61q-67 -81 -103 -184.5t-36 -215.5q0 -111 36 -214.5t103 -184.5h-61z" />
    <glyph glyph-name="parenright" unicode=")" horiz-adv-x="272" 
d="M20 -124q67 81 103 184.5t36 215.5q0 111 -36 214.5t-103 184.5h61q64 -80 100 -185t36 -214t-35.5 -214.5t-100.5 -185.5h-61z" />
    <glyph glyph-name="asterisk" unicode="*" horiz-adv-x="366" 
d="M56 380l97 114l-138 43l19 47l128 -51l-6 142h54l-6 -142l128 51l19 -47l-138 -43l97 -114l-42 -31l-85 122l-85 -122z" />
    <glyph glyph-name="plus" unicode="+" horiz-adv-x="560" 
d="M254 117v196h-185v48h185v196h53v-196h184v-48h-184v-196h-53z" />
    <glyph glyph-name="comma" unicode="," horiz-adv-x="198" 
d="M-25 -140q45 55 69 117.5t24 125.5h58q0 -64 -25.5 -126.5t-74.5 -116.5h-51z" />
    <glyph glyph-name="hyphen" unicode="-" horiz-adv-x="370" 
d="M54 256v50h262v-50h-262z" />
    <glyph glyph-name="period" unicode="." horiz-adv-x="198" 
d="M99 -6q-19 0 -32 13t-13 32q0 20 13 32.5t32 12.5q20 0 32.5 -12.5t12.5 -32.5q0 -19 -12.5 -32t-32.5 -13z" />
    <glyph glyph-name="slash" unicode="/" horiz-adv-x="319" 
d="M10 -95l247 770h52l-247 -770h-52z" />
    <glyph glyph-name="zero" unicode="0" horiz-adv-x="530" 
d="M266 -13q-109 0 -169.5 91.5t-60.5 258.5t60 259t168 92q109 0 169.5 -91.5t60.5 -258.5t-60 -259t-168 -92zM266 40q78 0 123 79.5t45 218.5q0 140 -45 218.5t-125 78.5q-78 0 -123 -79.5t-45 -218.5q0 -140 45 -218.5t125 -78.5z" />
    <glyph glyph-name="one" unicode="1" horiz-adv-x="370" 
d="M213 0v616l-176 -105v58l176 106h57v-675h-57z" />
    <glyph glyph-name="two" unicode="2" horiz-adv-x="471" 
d="M27 51l211 223q63 66 88.5 116.5t25.5 106.5q0 63 -38.5 100.5t-102.5 37.5q-89 0 -160 -54v56q32 24 75 37.5t89 13.5q58 0 103 -24.5t69.5 -67t24.5 -95.5q0 -64 -31 -124.5t-104 -137.5l-176 -186h330v-53h-404v51z" />
    <glyph glyph-name="three" unicode="3" horiz-adv-x="465" 
d="M213 -13q-101 0 -183 51v60q40 -28 85 -43t91 -15q79 0 124.5 39t45.5 106q0 69 -44 106t-126 37h-65v51h66q70 0 109.5 35.5t39.5 98.5q0 57 -38.5 90t-106.5 33q-74 0 -151 -49v54q69 47 158 47q90 0 144 -48t54 -128q0 -50 -29 -92t-79 -64q60 -19 93.5 -63.5
t33.5 -107.5q0 -88 -61.5 -143t-160.5 -55z" />
    <glyph glyph-name="four" unicode="4" horiz-adv-x="520" 
d="M344 0v170h-314v51l307 454h63v-455h95v-50h-95v-170h-56zM344 220v379l-254 -379h254z" />
    <glyph glyph-name="five" unicode="5" horiz-adv-x="475" 
d="M202 -13q-93 0 -169 50v60q76 -57 165 -57q79 0 125 44t46 119q0 73 -47.5 114t-133.5 41q-57 0 -126 -15l44 332h299v-53h-254l-29 -223q41 9 89 9q99 0 158 -56t59 -148q0 -65 -29.5 -114.5t-80.5 -76t-116 -26.5z" />
    <glyph glyph-name="six" unicode="6" horiz-adv-x="498" 
d="M255 -13q-105 0 -162 78t-57 224q0 194 69.5 296.5t200.5 102.5q71 0 116 -28v-55q-23 15 -54.5 23t-65.5 8q-101 0 -154 -81.5t-55 -238.5q24 53 70.5 82t108.5 29q58 0 102.5 -28.5t68.5 -78t24 -111.5q0 -65 -28.5 -116t-76.5 -78.5t-107 -27.5zM257 38q67 0 110 47
t43 122q0 77 -41 123t-109 46q-69 0 -113 -47t-44 -121q0 -75 43 -122.5t111 -47.5z" />
    <glyph glyph-name="seven" unicode="7" horiz-adv-x="448" 
d="M377 622h-350v53h408v-52l-272 -623h-64z" />
    <glyph glyph-name="eight" unicode="8" horiz-adv-x="498" 
d="M249 -13q-65 0 -115 25t-77 68.5t-27 97.5q0 63 33.5 109.5t93.5 67.5q-50 22 -76.5 62.5t-26.5 95.5q0 51 27 91t71.5 62t98.5 22q85 0 139 -49t54 -126q0 -53 -26.5 -94t-75.5 -64q59 -20 92.5 -66.5t33.5 -108.5q0 -58 -28.5 -102t-78 -67.5t-112.5 -23.5zM249 37
q72 0 116 40.5t44 105.5t-44 105.5t-116 40.5t-116 -40.5t-44 -105.5t44 -105.5t116 -40.5zM249 377q61 0 98.5 36.5t37.5 94.5q0 57 -38 93.5t-98 36.5q-61 0 -98.5 -36.5t-37.5 -94.5q0 -57 38 -93.5t98 -36.5z" />
    <glyph glyph-name="nine" unicode="9" horiz-adv-x="498" 
d="M243 688q105 0 162 -78t57 -224q0 -194 -69.5 -296.5t-200.5 -102.5q-71 0 -116 28v55q23 -15 54.5 -23t65.5 -8q100 0 153.5 82t55.5 238q-24 -53 -70 -82t-109 -29q-58 0 -102.5 28.5t-68.5 78t-24 111.5q0 65 28.5 116t76.5 78.5t107 27.5zM241 637q-67 0 -110 -47
t-43 -122q0 -77 41 -123t109 -46q69 0 113 47t44 121q0 75 -43 122.5t-111 47.5z" />
    <glyph glyph-name="colon" unicode=":" horiz-adv-x="198" 
d="M99 -6q-19 0 -32 13t-13 32q0 20 13 32.5t32 12.5q20 0 32.5 -12.5t12.5 -32.5q0 -19 -12.5 -32t-32.5 -13zM99 387q-19 0 -32 13t-13 32q0 20 13 32.5t32 12.5q20 0 32.5 -12.5t12.5 -32.5q0 -19 -12.5 -32t-32.5 -13z" />
    <glyph glyph-name="semicolon" unicode=";" horiz-adv-x="198" 
d="M-25 -140q45 55 69 117.5t24 125.5h58q0 -64 -25.5 -126.5t-74.5 -116.5h-51zM99 387q-19 0 -32 13t-13 32q0 20 13 32.5t32 12.5q20 0 32.5 -12.5t12.5 -32.5q0 -19 -12.5 -32t-32.5 -13z" />
    <glyph glyph-name="less" unicode="&#x3c;" horiz-adv-x="560" 
d="M466 125l-382 190v44l382 190v-57l-316 -155l316 -154v-58z" />
    <glyph glyph-name="equal" unicode="=" horiz-adv-x="560" 
d="M89 209v50h382v-50h-382zM89 415v50h382v-50h-382z" />
    <glyph glyph-name="greater" unicode="&#x3e;" horiz-adv-x="560" 
d="M94 182l315 155l-315 154v58l382 -190v-44l-382 -190v57z" />
    <glyph glyph-name="question" unicode="?" horiz-adv-x="435" 
d="M153 163q-3 20 -3 40q0 62 20 102t73 85q37 32 56.5 53.5t28 40.5t8.5 43q0 52 -35.5 80t-101.5 28q-80 0 -154 -53v55q74 51 162 51q86 0 137 -43t51 -115q0 -43 -23 -80.5t-75 -80.5q-39 -32 -59.5 -55.5t-29 -48.5t-8.5 -64q0 -22 1 -38h-48zM183 -6q-19 0 -32 13
t-13 32q0 20 13 32.5t32 12.5q20 0 32.5 -12.5t12.5 -32.5q0 -19 -12.5 -32t-32.5 -13z" />
    <glyph glyph-name="at" unicode="@" horiz-adv-x="927" 
d="M453 -209q-124 0 -216 54.5t-140.5 152t-48.5 224.5q0 138 57 243.5t154.5 162t219.5 56.5q121 0 212 -53t139.5 -145.5t48.5 -210.5q0 -82 -23.5 -145t-63 -97t-88.5 -34q-84 0 -104 105q-22 -51 -62 -78t-93 -27q-56 0 -97.5 30t-64 82.5t-22.5 120.5q0 72 24.5 127.5
t66.5 85t94 29.5q48 0 86.5 -24.5t59.5 -67.5l5 83h46v-294q0 -125 66 -125q33 0 59 31t40.5 82t14.5 113q0 110 -44 191.5t-121.5 125t-178.5 43.5q-113 0 -197.5 -52.5t-130 -145t-45.5 -211.5q0 -117 44 -203.5t123 -131.5t183 -45q97 0 163 37l6 -53q-67 -36 -172 -36z
M455 425q-62 0 -99.5 -52t-37.5 -137q0 -58 17.5 -100.5t48.5 -65t71 -22.5q62 0 99.5 51t37.5 136t-37.5 137.5t-99.5 52.5z" />
    <glyph glyph-name="A" unicode="A" horiz-adv-x="608" 
d="M273 675h61l248 -675h-61l-71 198h-294l-70 -198h-60zM174 249h258l-129 364z" />
    <glyph glyph-name="B" unicode="B" horiz-adv-x="543" 
d="M75 675h182q102 0 162 -46t60 -124q0 -113 -110 -152q65 -19 99.5 -60.5t34.5 -99.5q0 -93 -67.5 -143t-194.5 -50h-166v675zM240 50q100 0 152 35t52 104q0 65 -51 100.5t-146 35.5h-114v-275h107zM245 375q86 0 131 32t45 94q0 59 -43.5 91.5t-122.5 32.5h-122v-250
h112z" />
    <glyph glyph-name="C" unicode="C" horiz-adv-x="577" 
d="M340 -13q-92 0 -160 44t-104 122.5t-36 181.5q0 107 39 187t107 123t156 43q47 0 92 -14t76 -38v-61q-28 27 -73.5 43.5t-91.5 16.5q-76 0 -131 -37t-84 -104t-29 -156q0 -92 31 -159t86 -102.5t127 -35.5q99 0 177 66v-61q-77 -59 -182 -59z" />
    <glyph glyph-name="D" unicode="D" horiz-adv-x="626" 
d="M75 675h161q165 0 257.5 -89t92.5 -247q0 -161 -95 -250t-268 -89h-148v675zM134 624v-573h92q143 0 221 74.5t78 211.5t-76.5 212t-215.5 75h-99z" />
    <glyph glyph-name="E" unicode="E" horiz-adv-x="525" 
d="M75 0v675h385v-51h-326v-254h276v-51h-276v-268h336v-51h-395z" />
    <glyph glyph-name="F" unicode="F" horiz-adv-x="486" 
d="M75 0v675h371v-51h-312v-264h262v-51h-262v-309h-59z" />
    <glyph glyph-name="G" unicode="G" horiz-adv-x="612" 
d="M354 -13q-96 0 -167.5 44t-109 122.5t-37.5 181.5q0 107 41 187.5t112.5 123t163.5 42.5q48 0 94.5 -14t78.5 -38v-61q-29 27 -76.5 43.5t-94.5 16.5q-119 0 -188.5 -80t-69.5 -217q0 -136 70 -216.5t188 -80.5q75 0 135 28v218h-161v51h219v-296q-40 -26 -92.5 -40.5
t-105.5 -14.5z" />
    <glyph glyph-name="H" unicode="H" horiz-adv-x="637" 
d="M75 0v675h59v-304h369v304h59v-675h-59v318h-369v-318h-59z" />
    <glyph glyph-name="I" unicode="I" horiz-adv-x="209" 
d="M75 0v675h59v-675h-59z" />
    <glyph glyph-name="J" unicode="J" horiz-adv-x="425" 
d="M163 -13q-66 0 -125 33v57q58 -37 124 -37q68 0 101 39t33 118v478h59v-470q0 -107 -49 -162.5t-143 -55.5z" />
    <glyph glyph-name="K" unicode="K" horiz-adv-x="547" 
d="M75 0v675h59v-308l296 308h71l-318 -331l349 -344h-78l-320 318v-318h-59z" />
    <glyph glyph-name="L" unicode="L" horiz-adv-x="495" 
d="M75 0v675h59v-624h326v-51h-385z" />
    <glyph glyph-name="M" unicode="M" horiz-adv-x="794" 
d="M60 0l44 675h70l223 -539l223 539h70l44 -675h-56l-39 595l-215 -523h-55l-217 521l-37 -593h-55z" />
    <glyph glyph-name="N" unicode="N" horiz-adv-x="632" 
d="M75 0v675h64l361 -588v588h57v-675h-64l-361 587v-587h-57z" />
    <glyph glyph-name="O" unicode="O" horiz-adv-x="659" 
d="M331 40q103 0 165 81t62 217q0 90 -29.5 157.5t-81.5 103.5t-119 36q-103 0 -165 -81t-62 -217q0 -90 29.5 -157.5t81.5 -103.5t119 -36zM328 -13q-87 0 -152.5 45t-100.5 124t-35 180q0 106 37.5 186t103 123t150.5 43q87 0 152.5 -45t100.5 -124t35 -180
q0 -106 -37.5 -186t-103 -123t-150.5 -43z" />
    <glyph glyph-name="P" unicode="P" horiz-adv-x="523" 
d="M75 675h170q115 0 181.5 -53t66.5 -144q0 -97 -66.5 -151.5t-185.5 -54.5h-107v-272h-59v675zM134 625v-303h107q91 0 141 40t50 112t-49 111.5t-141 39.5h-108z" />
    <glyph glyph-name="Q" unicode="Q" horiz-adv-x="659" 
d="M638 -123q-164 44 -279.5 83t-166.5 67q-73 41 -112.5 121.5t-39.5 187.5q0 106 37.5 186t103.5 123t150 43q87 0 152.5 -45t100.5 -124t35 -180q0 -138 -64 -229t-175 -111q107 -30 258 -62v-60zM331 40q69 0 120.5 38.5t79 105.5t27.5 153q0 91 -29.5 158.5t-81 103.5
t-119.5 36q-69 0 -120.5 -38t-79 -105t-27.5 -155q0 -90 29.5 -157.5t81.5 -103.5t119 -36z" />
    <glyph glyph-name="R" unicode="R" horiz-adv-x="553" 
d="M75 0v675h172q107 0 171.5 -51.5t64.5 -137.5q0 -75 -45 -125.5t-125 -66.5l215 -294h-71l-208 288h-115v-288h-59zM134 625v-287h108q85 0 132.5 38t47.5 106q0 69 -46.5 106t-131.5 37h-110z" />
    <glyph glyph-name="S" unicode="S" horiz-adv-x="490" 
d="M228 -13q-104 0 -188 48v61q90 -55 180 -55q78 0 124 36.5t46 98.5q0 53 -37.5 85t-132.5 62q-90 29 -128.5 72t-38.5 115q0 53 28.5 93.5t76.5 62.5t107 22q85 0 146 -39v-57q-64 43 -145 43q-70 0 -112 -33.5t-42 -90.5q0 -53 33.5 -84t113.5 -55q100 -30 145.5 -76
t45.5 -118q0 -57 -29 -100.5t-79.5 -67t-113.5 -23.5z" />
    <glyph glyph-name="T" unicode="T" horiz-adv-x="547" 
d="M244 0v624h-219v51h497v-51h-219v-624h-59z" />
    <glyph glyph-name="U" unicode="U" horiz-adv-x="624" 
d="M314 -13q-57 0 -102.5 20t-77 56t-48 86t-16.5 110v416h59v-408q0 -107 49 -166.5t137 -59.5q83 0 131.5 59t48.5 159v416h59v-408q0 -127 -65.5 -203.5t-174.5 -76.5z" />
    <glyph glyph-name="V" unicode="V" horiz-adv-x="594" 
d="M26 675h63l209 -612l208 612h62l-239 -675h-63z" />
    <glyph glyph-name="W" unicode="W" horiz-adv-x="838" 
d="M26 675h61l152 -601l150 571h61l151 -571l151 601h60l-181 -675h-62l-151 571l-150 -571h-60z" />
    <glyph glyph-name="X" unicode="X" horiz-adv-x="554" 
d="M25 0l220 347l-209 328h66l176 -282l177 282h63l-209 -328l220 -347h-67l-187 301l-186 -301h-64z" />
    <glyph glyph-name="Y" unicode="Y" horiz-adv-x="547" 
d="M244 272l-228 403h64l194 -352l194 352h63l-228 -404v-271h-59v272z" />
    <glyph glyph-name="Z" unicode="Z" horiz-adv-x="542" 
d="M44 0v45l387 579h-370v51h435v-45l-387 -579h397v-51h-462z" />
    <glyph glyph-name="bracketleft" unicode="[" horiz-adv-x="269" 
d="M85 -124v799h160v-46h-105v-707h105v-46h-160z" />
    <glyph glyph-name="backslash" unicode="\" horiz-adv-x="319" 
d="M257 -95l-247 770h52l247 -770h-52z" />
    <glyph glyph-name="bracketright" unicode="]" horiz-adv-x="269" 
d="M24 -78h105v707h-105v46h160v-799h-160v46z" />
    <glyph glyph-name="asciicircum" unicode="^" horiz-adv-x="560" 
d="M443 265l-162 348l-162 -348h-61l198 410h48l198 -410h-59z" />
    <glyph glyph-name="underscore" unicode="_" horiz-adv-x="500" 
d="M0 -93h500v-48h-500v48z" />
    <glyph glyph-name="grave" unicode="`" horiz-adv-x="500" 
d="M164 745h69l103 -149h-55z" />
    <glyph glyph-name="a" unicode="a" horiz-adv-x="489" 
d="M206 -13q-73 0 -117 40t-44 107q0 85 71.5 130t207.5 45h22t21 -1v4q0 82 -33 121.5t-101 39.5q-78 0 -148 -47v54q69 45 153 45q90 0 138.5 -53.5t48.5 -153.5v-318h-51l-4 75q-23 -41 -67.5 -64.5t-96.5 -23.5zM215 35q43 0 78 22t54.5 56t19.5 73v74q-18 1 -51 1
q-104 0 -158.5 -31t-54.5 -91q0 -47 30.5 -75.5t81.5 -28.5z" />
    <glyph glyph-name="b" unicode="b" horiz-adv-x="538" 
d="M287 -13q-55 0 -97 26.5t-67 75.5l-4 -89h-51v745h58v-322q24 47 69 74.5t99 27.5q63 0 110 -34.5t72 -94.5t25 -137q0 -124 -58.5 -198t-155.5 -74zM281 38q74 0 117.5 59t43.5 160q0 100 -43.5 158.5t-117.5 58.5q-71 0 -114 -59.5t-43 -156.5q0 -67 20.5 -117
t56 -76.5t80.5 -26.5z" />
    <glyph glyph-name="c" unicode="c" horiz-adv-x="445" 
d="M269 -13q-106 0 -169 72.5t-63 195.5q0 82 30 143t82.5 94t120.5 33q76 0 123 -31v-56q-43 34 -120 34q-82 0 -129.5 -58t-47.5 -158q0 -98 48 -157t130 -59q72 0 128 38v-55q-61 -36 -133 -36z" />
    <glyph glyph-name="d" unicode="d" horiz-adv-x="538" 
d="M244 -13q-63 0 -110 34t-72 94t-25 138q0 124 58.5 198t155.5 74q52 0 93.5 -25t67.5 -73v318h58v-745h-51l-5 92q-23 -49 -68.5 -77t-101.5 -28zM257 38q71 0 114 59.5t43 156.5q0 67 -20.5 117t-56 76.5t-80.5 26.5q-74 0 -117.5 -59.5t-43.5 -159.5t43.5 -158.5
t117.5 -58.5z" />
    <glyph glyph-name="e" unicode="e" horiz-adv-x="487" 
d="M269 -13q-107 0 -169.5 73t-62.5 198q0 82 27.5 142.5t76.5 92.5t113 32q92 0 144.5 -66t52.5 -182v-35h-357q5 -95 52 -148.5t128 -53.5q83 0 147 46v-55q-65 -44 -152 -44zM251 474q-69 0 -109.5 -48t-46.5 -136h301q-2 87 -40 135.5t-105 48.5z" />
    <glyph glyph-name="f" unicode="f" horiz-adv-x="316" 
d="M92 464h-84v48h84v74q0 83 39 127.5t112 44.5q34 0 65 -13v-51q-28 14 -64 14q-94 0 -94 -115v-81h136v-48h-136v-464h-58v464z" />
    <glyph glyph-name="g" unicode="g" horiz-adv-x="538" 
d="M243 -203q-43 0 -85.5 11.5t-72.5 30.5v56q30 -21 72 -33.5t84 -12.5q86 0 128.5 46t42.5 140v53q-24 -48 -69 -74.5t-99 -26.5q-63 0 -110 34.5t-72 94.5t-25 137q0 124 58.5 198t155.5 74q54 0 96 -26.5t67 -75.5l5 89h51v-473q0 -119 -57.5 -180.5t-169.5 -61.5z
M257 38q70 0 113.5 59.5t43.5 156.5q0 67 -20.5 117t-56 76.5t-80.5 26.5q-74 0 -117.5 -59.5t-43.5 -159.5t43.5 -158.5t117.5 -58.5z" />
    <glyph glyph-name="h" unicode="h" horiz-adv-x="525" 
d="M68 745h58v-303q25 40 66 61.5t92 21.5q81 0 129 -55.5t48 -150.5v-319h-58v311q0 77 -34.5 119.5t-96.5 42.5q-65 0 -105.5 -45t-40.5 -116v-312h-58v745z" />
    <glyph glyph-name="i" unicode="i" horiz-adv-x="194" 
d="M68 512h58v-512h-58v512zM97 629q-18 0 -30.5 12.5t-12.5 30.5t12.5 30.5t30.5 12.5t30.5 -12.5t12.5 -30.5t-12.5 -30.5t-30.5 -12.5z" />
    <glyph glyph-name="j" unicode="j" horiz-adv-x="194" 
d="M-4 -203q-34 0 -56 11v50q22 -11 50 -11q38 0 58 27.5t20 80.5v557h58v-551q0 -79 -33.5 -121.5t-96.5 -42.5zM97 629q-18 0 -30.5 12.5t-12.5 30.5t12.5 30.5t30.5 12.5t30.5 -12.5t12.5 -30.5t-12.5 -30.5t-30.5 -12.5z" />
    <glyph glyph-name="k" unicode="k" horiz-adv-x="471" 
d="M126 268v-268h-58v745h58v-446l228 213h72l-245 -227l280 -285h-75z" />
    <glyph glyph-name="l" unicode="l" horiz-adv-x="194" 
d="M68 745h58v-745h-58v745z" />
    <glyph glyph-name="m" unicode="m" horiz-adv-x="796" 
d="M68 512h51l3 -66q24 38 61.5 58.5t84.5 20.5q49 0 86 -24t57 -70q24 45 66 69.5t94 24.5q74 0 117.5 -50.5t43.5 -136.5v-338h-58v330q0 67 -30.5 105t-85.5 38q-56 0 -92.5 -39.5t-36.5 -102.5v-331h-58v330q0 67 -30.5 105t-85.5 38q-56 0 -92.5 -39.5t-36.5 -102.5
v-331h-58v512z" />
    <glyph glyph-name="n" unicode="n" horiz-adv-x="525" 
d="M68 512h51l4 -77q25 43 67 66.5t94 23.5q81 0 129 -55.5t48 -150.5v-319h-58v311q0 77 -34.5 119.5t-96.5 42.5q-65 0 -105.5 -45t-40.5 -116v-312h-58v512z" />
    <glyph glyph-name="o" unicode="o" horiz-adv-x="525" 
d="M262 -13q-68 0 -119 35t-78.5 95.5t-27.5 137.5q0 82 29.5 143t80.5 94t116 33q68 0 119.5 -34.5t78.5 -95t27 -138.5q0 -82 -29.5 -143t-80.5 -94t-116 -33zM263 39q76 0 121 59t45 158q0 98 -45.5 157.5t-121.5 59.5t-121 -58.5t-45 -158.5q0 -98 45.5 -157.5
t121.5 -59.5z" />
    <glyph glyph-name="p" unicode="p" horiz-adv-x="538" 
d="M68 512h51l5 -93q23 49 68.5 77.5t101.5 28.5q63 0 110 -34.5t72 -94.5t25 -137q0 -124 -58.5 -198t-155.5 -74q-53 0 -94.5 25t-66.5 72v-274h-58v702zM281 38q74 0 117.5 59t43.5 160q0 100 -43.5 158.5t-117.5 58.5q-71 0 -114 -59.5t-43 -156.5q0 -67 20.5 -117
t56 -76.5t80.5 -26.5z" />
    <glyph glyph-name="q" unicode="q" horiz-adv-x="538" 
d="M412 88q-24 -48 -69 -74.5t-99 -26.5q-63 0 -110 34t-72 94t-25 138q0 124 58.5 198t155.5 74q54 0 96 -26.5t67 -76.5l5 90h51v-702h-58v278zM257 38q71 0 114 59.5t43 156.5q0 67 -20.5 117t-56 76.5t-80.5 26.5q-74 0 -117.5 -59.5t-43.5 -159.5t43.5 -158.5
t117.5 -58.5z" />
    <glyph glyph-name="r" unicode="r" horiz-adv-x="329" 
d="M68 512h51l4 -79q18 42 52.5 65.5t77.5 23.5q26 0 46 -7v-53q-20 7 -47 7q-57 0 -91.5 -46t-34.5 -122v-301h-58v512z" />
    <glyph glyph-name="s" unicode="s" horiz-adv-x="398" 
d="M179 -13q-85 0 -147 37v55q69 -42 143 -42q59 0 94 26.5t35 70.5q0 38 -28.5 60.5t-99.5 43.5q-73 21 -106 55.5t-33 89.5q0 61 50 101.5t126 40.5q33 0 64.5 -7.5t54.5 -21.5v-53q-53 32 -118 32q-55 0 -88 -25t-33 -65q0 -38 24.5 -59t89.5 -40q85 -25 119.5 -59.5
t34.5 -94.5q0 -65 -50 -105t-132 -40z" />
    <glyph glyph-name="t" unicode="t" horiz-adv-x="337" 
d="M226 -10q-65 0 -98.5 38.5t-33.5 111.5v324h-86v48h86v143h58v-143h132v-48h-132v-322q0 -53 20 -77.5t62 -24.5q31 0 67 18v-50q-33 -18 -75 -18z" />
    <glyph glyph-name="u" unicode="u" horiz-adv-x="519" 
d="M237 -13q-80 0 -126.5 55.5t-46.5 150.5v319h58v-311q0 -77 34 -120t95 -43q62 0 102 45t40 116v313h58v-512h-51l-4 72q-25 -40 -66.5 -62.5t-92.5 -22.5z" />
    <glyph glyph-name="v" unicode="v" horiz-adv-x="465" 
d="M14 512h64l156 -445l156 445h61l-190 -512h-57z" />
    <glyph glyph-name="w" unicode="w" horiz-adv-x="670" 
d="M14 512h61l113 -440l118 420h59l118 -420l113 440h60l-141 -512h-62l-119 418l-118 -418h-61z" />
    <glyph glyph-name="x" unicode="x" horiz-adv-x="464" 
d="M199 262l-174 250h66l143 -207l142 207h63l-174 -250l184 -262h-68l-151 222l-150 -222h-65z" />
    <glyph glyph-name="y" unicode="y" horiz-adv-x="465" 
d="M86 -203q-23 0 -41 6v52q17 -6 37 -6q39 0 64.5 29t53.5 105l11 30l-197 499h64l161 -429l151 429h61l-203 -547q-23 -63 -45.5 -99t-50 -52.5t-66.5 -16.5z" />
    <glyph glyph-name="z" unicode="z" horiz-adv-x="465" 
d="M41 48l311 415h-296v49h361v-48l-311 -415h320v-49h-385v48z" />
    <glyph glyph-name="braceleft" unicode="{" horiz-adv-x="283" 
d="M212 -124q-54 0 -82 30.5t-28 89.5q0 33 4 61t7.5 55.5t3.5 58.5q0 46 -17 63.5t-60 17.5h-10v47h10q43 0 60 17.5t17 63.5q0 31 -3.5 58.5t-7.5 55.5t-4 61q0 59 28 89.5t82 30.5q26 0 47 -6v-44q-16 4 -42 4q-32 0 -46 -18.5t-14 -58.5q0 -32 4 -59.5t7.5 -54.5
t3.5 -58q0 -44 -15 -69.5t-47 -35.5q32 -10 47 -35t15 -69q0 -31 -3.5 -58t-7.5 -54.5t-4 -59.5q0 -40 14 -58.5t46 -18.5q26 0 42 4v-44q-21 -6 -47 -6z" />
    <glyph glyph-name="bar" unicode="|" horiz-adv-x="219" 
d="M85 -190v935h49v-935h-49z" />
    <glyph glyph-name="braceright" unicode="}" horiz-adv-x="283" 
d="M71 -124q-26 0 -47 6v44q16 -4 42 -4q32 0 46 18.5t14 58.5q0 32 -3.5 59.5t-7.5 54.5t-4 58q0 30 6.5 50.5t20 34t34.5 19.5q-32 10 -46.5 35t-14.5 70q0 31 4 58t7.5 54.5t3.5 59.5q0 40 -14 58.5t-46 18.5q-26 0 -42 -4v44q21 6 47 6q54 0 82 -30.5t28 -89.5
q0 -33 -3.5 -61t-7.5 -55.5t-4 -58.5q0 -46 17 -63.5t60 -17.5h10v-47h-10q-43 0 -60 -17.5t-17 -63.5q0 -31 4 -58.5t7.5 -55.5t3.5 -61q0 -59 -28 -89.5t-82 -30.5z" />
    <glyph glyph-name="asciitilde" unicode="~" horiz-adv-x="560" 
d="M381 263q-25 0 -47.5 10t-42.5 25t-39 30t-37 25t-36 10q-29 0 -45 -25t-16 -72h-51q0 68 29.5 106.5t82.5 38.5q25 0 47.5 -10t42.5 -25t39 -30t37 -25t36 -10q29 0 45 25t16 72h51q0 -68 -29.5 -106.5t-82.5 -38.5z" />
    <glyph glyph-name="uni00A0" unicode="&#xa0;" horiz-adv-x="170" 
 />
    <glyph glyph-name="exclamdown" unicode="&#xa1;" horiz-adv-x="233" 
d="M148 0h-62l7 512h48zM117 681q20 0 32.5 -12.5t12.5 -32.5q0 -19 -12.5 -32t-32.5 -13q-19 0 -32 13t-13 32q0 20 13 32.5t32 12.5z" />
    <glyph glyph-name="cent" unicode="&#xa2;" horiz-adv-x="560" 
d="M294 60q-93 11 -146.5 82t-53.5 185q0 111 54 183t146 84v114h52v-112q62 -3 104 -30v-56q-44 35 -120 35q-82 0 -129.5 -58.5t-47.5 -158.5q0 -99 48.5 -158t129.5 -59q70 0 128 39v-55q-54 -32 -113 -36v-111h-52v112z" />
    <glyph glyph-name="sterling" unicode="&#xa3;" horiz-adv-x="560" 
d="M415 319h-177q10 -62 10 -95q0 -48 -18 -90t-56 -83h333v-51h-417v33q46 40 73.5 90t27.5 96q0 40 -11 100h-85v50h75q-12 60 -12 117q0 61 24.5 107t68 70.5t98.5 24.5q80 0 138 -38v-57q-62 42 -137 42q-62 0 -98 -40.5t-36 -107.5q0 -58 12 -118h187v-50z" />
    <glyph glyph-name="yen" unicode="&#xa5;" horiz-adv-x="560" 
d="M308 149v-149h-57v149h-160v46h160v78h-160v46h135l-196 356h63l187 -353l188 353h61l-197 -356h136v-46h-160v-78h160v-46h-160z" />
    <glyph glyph-name="section" unicode="&#xa7;" horiz-adv-x="503" 
d="M261 688q39 0 75 -9t63 -25v-54q-62 38 -136 38q-59 0 -92.5 -24.5t-33.5 -67.5q0 -24 11 -41.5t40 -32t86 -31.5q97 -29 138.5 -69t41.5 -104q0 -41 -23 -79t-63 -61q56 -40 56 -104q0 -68 -53.5 -109.5t-139.5 -41.5q-98 0 -172 42v56q77 -48 165 -48q68 0 105.5 26
t37.5 73q0 37 -30 59t-122 51q-90 29 -128 68t-38 103q0 40 23.5 77t62.5 60q-28 20 -41 45.5t-13 58.5q0 63 50.5 103.5t129.5 40.5zM268 173q31 -10 60 -23q31 18 50.5 48.5t19.5 60.5q0 36 -14.5 58t-50.5 41t-102 39q-33 9 -57 21q-32 -19 -50.5 -48t-18.5 -60
q0 -35 14.5 -58t49.5 -41.5t99 -37.5z" />
    <glyph glyph-name="dieresis" unicode="&#xa8;" horiz-adv-x="500" 
d="M158 631q-17 0 -29 12t-12 29t12 29t29 12t29 -12t12 -29t-12 -29t-29 -12zM342 631q-17 0 -29 12t-12 29t12 29t29 12t29 -12t12 -29t-12 -29t-29 -12z" />
    <glyph glyph-name="copyright" unicode="&#xa9;" horiz-adv-x="773" 
d="M386 643q-86 0 -151 -39.5t-100 -108.5t-35 -157q0 -91 37 -160.5t102 -107t147 -37.5q87 0 152 39.5t100 108.5t35 157q0 92 -37.5 161.5t-102.5 106.5t-147 37zM386 688q100 0 177 -46.5t118.5 -126t41.5 -177.5q0 -104 -45 -184t-121.5 -123.5t-170.5 -43.5
q-99 0 -176 47t-118.5 126.5t-41.5 177.5q0 104 44.5 184t120.5 123t171 43zM396 130q-85 0 -136.5 56.5t-51.5 151.5q0 63 24.5 110.5t67.5 73t97 25.5q61 0 103 -26v-52q-40 30 -101 30q-62 0 -98.5 -43t-36.5 -118q0 -73 37 -116.5t99 -43.5t108 31v-49q-54 -30 -112 -30
z" />
    <glyph glyph-name="ordfeminine" unicode="&#xaa;" horiz-adv-x="380" 
d="M160 308q-55 0 -88 28.5t-33 75.5q0 60 52.5 91.5t151.5 31.5q20 0 32 -1v4q0 54 -23.5 79.5t-72.5 25.5q-55 0 -110 -33v46q53 32 113 32q69 0 106 -38t37 -109v-223h-44l-4 48q-17 -26 -48.5 -42t-68.5 -16zM166 348q45 0 77 29t32 70v48q-19 1 -37 1q-72 0 -109 -20.5
t-37 -60.5q0 -31 20 -49t54 -18z" />
    <glyph glyph-name="guillemotleft" unicode="&#xab;" horiz-adv-x="437" 
d="M101 280l131 -173h-61l-131 173l131 173h61zM256 280l131 -173h-61l-131 173l131 173h61z" />
    <glyph glyph-name="logicalnot" unicode="&#xac;" horiz-adv-x="560" 
d="M438 199v196h-369v48h422v-244h-53z" />
    <glyph glyph-name="registered" unicode="&#xae;" horiz-adv-x="470" 
d="M235 675q58 0 103 -26.5t69.5 -71.5t24.5 -101q0 -59 -26.5 -104.5t-71 -70t-99.5 -24.5q-58 0 -103 26.5t-69.5 71.5t-24.5 101q0 59 26.5 104.5t71 70t99.5 24.5zM235 636q-70 0 -112.5 -44t-42.5 -116q0 -73 42.5 -116.5t112.5 -43.5q71 0 113.5 44t42.5 116t-43 116
t-113 44zM162 372v214h75q38 0 59 -17.5t21 -47.5q0 -51 -48 -66l62 -83h-47l-56 78h-25v-78h-41zM203 553v-70h25q23 0 35 9.5t12 26.5q0 34 -40 34h-32z" />
    <glyph glyph-name="degree" unicode="&#xb0;" horiz-adv-x="302" 
d="M151 456q-49 0 -82.5 33.5t-33.5 82.5t33.5 82.5t82.5 33.5q50 0 83 -33t33 -83q0 -49 -33.5 -82.5t-82.5 -33.5zM151 497q31 0 51 21t20 54t-20 54t-51 21t-51 -21t-20 -54t20 -54t51 -21z" />
    <glyph glyph-name="uni00B2" unicode="&#xb2;" 
d="M49 475l111 97q43 38 61.5 67t18.5 59q0 32 -21.5 51t-56.5 19q-54 0 -100 -34v48q42 31 102 31q56 0 92 -32t36 -82q0 -38 -21.5 -75t-67.5 -76l-82 -70h181v-45h-253v42z" />
    <glyph glyph-name="uni00B3" unicode="&#xb3;" 
d="M164 420q-62 0 -118 37v49q55 -41 112 -41q43 0 67.5 19t24.5 53q0 32 -24 49.5t-68 17.5h-52v43h53q39 0 59.5 17t20.5 47q0 26 -21 41.5t-57 15.5q-51 0 -99 -32v48q42 29 102 29q58 0 93 -28t35 -73q0 -28 -15.5 -51t-41.5 -34q31 -10 49 -34.5t18 -58.5
q0 -51 -38 -82.5t-100 -31.5z" />
    <glyph glyph-name="acute" unicode="&#xb4;" horiz-adv-x="500" 
d="M219 596h-55l103 149h69z" />
    <glyph glyph-name="paragraph" unicode="&#xb6;" horiz-adv-x="487" 
d="M283 675v-770h-47v369q-96 8 -151 61t-55 138q0 94 65.5 148t176.5 54h11zM355 -95v770h47v-770h-47z" />
    <glyph glyph-name="periodcentered" unicode="&#xb7;" horiz-adv-x="198" 
d="M99 236q-19 0 -32 13t-13 32q0 20 13 32.5t32 12.5q20 0 32.5 -12.5t12.5 -32.5q0 -19 -12.5 -32t-32.5 -13z" />
    <glyph glyph-name="cedilla" unicode="&#xb8;" horiz-adv-x="500" 
d="M258 16l-23 -90q49 -1 77.5 -23.5t28.5 -61.5q0 -44 -33.5 -71t-87.5 -27q-33 0 -61 11v42q30 -11 60 -11q32 0 53 15.5t21 39.5q0 50 -79 50h-29l31 126h42z" />
    <glyph glyph-name="uni00B9" unicode="&#xb9;" 
d="M198 433v319l-113 -67v47l113 68h49v-367h-49z" />
    <glyph glyph-name="ordmasculine" unicode="&#xba;" horiz-adv-x="408" 
d="M203 308q-74 0 -119 52t-45 138q0 85 45.5 137.5t119.5 52.5t119.5 -52t45.5 -137q0 -86 -46 -138.5t-120 -52.5zM204 353q52 0 82.5 39t30.5 106q0 66 -31 105.5t-83 39.5q-51 0 -81.5 -39.5t-30.5 -105.5t31 -105.5t82 -39.5z" />
    <glyph glyph-name="guillemotright" unicode="&#xbb;" horiz-adv-x="437" 
d="M181 280l-131 173h61l131 -173l-131 -173h-61zM336 280l-131 173h61l131 -173l-131 -173h-61z" />
    <glyph glyph-name="onequarter" unicode="&#xbc;" horiz-adv-x="773" 
d="M174 0l411 675h59l-411 -675h-59zM635 0v81h-186v42l182 244h52v-244h54v-42h-54v-81h-48zM635 123v182l-137 -182h137zM198 308v319l-113 -67v47l113 68h49v-367h-49z" />
    <glyph glyph-name="onehalf" unicode="&#xbd;" horiz-adv-x="773" 
d="M133 0l411 675h59l-411 -675h-59zM458 42l111 97q43 38 61.5 67t18.5 59q0 32 -21.5 51t-56.5 19q-54 0 -100 -34v48q42 31 102 31q56 0 92 -32t36 -82q0 -38 -21.5 -75t-67.5 -76l-82 -70h181v-45h-253v42zM198 308v319l-113 -67v47l113 68h49v-367h-49z" />
    <glyph glyph-name="threequarters" unicode="&#xbe;" horiz-adv-x="773" 
d="M176 0l411 675h59l-411 -675h-59zM635 0v81h-186v42l182 244h52v-244h54v-42h-54v-81h-48zM635 123v182l-137 -182h137zM164 295q-62 0 -118 37v49q55 -41 112 -41q43 0 67.5 19t24.5 53q0 32 -24 49.5t-68 17.5h-52v43h53q39 0 59.5 17t20.5 47q0 26 -21 41.5t-57 15.5
q-51 0 -99 -32v48q42 29 102 29q58 0 93 -28t35 -73q0 -28 -15.5 -51t-41.5 -34q31 -10 49 -34.5t18 -58.5q0 -51 -38 -82.5t-100 -31.5z" />
    <glyph glyph-name="questiondown" unicode="&#xbf;" horiz-adv-x="435" 
d="M282 512q3 -19 3 -40q0 -62 -20 -102t-73 -85q-37 -32 -56.5 -53.5t-28 -40.5t-8.5 -43q0 -52 35.5 -80t101.5 -28q80 0 154 53v-55q-74 -51 -162 -51q-86 0 -137 43t-51 115q0 43 23 80.5t75 80.5q39 32 59.5 55.5t29 48.5t8.5 64q0 22 -1 38h48zM252 681
q20 0 32.5 -12.5t12.5 -32.5q0 -19 -12.5 -32t-32.5 -13q-19 0 -32 13t-13 32q0 20 13 32.5t32 12.5z" />
    <glyph glyph-name="Agrave" unicode="&#xc0;" horiz-adv-x="608" 
d="M273 675h61l248 -675h-61l-71 198h-294l-70 -198h-60zM174 249h258l-129 364zM275 745l-137 138h73l124 -138h-60z" />
    <glyph glyph-name="Aacute" unicode="&#xc1;" horiz-adv-x="608" 
d="M273 675h61l248 -675h-61l-71 198h-294l-70 -198h-60zM174 249h258l-129 364zM270 745l124 138h73l-137 -138h-60z" />
    <glyph glyph-name="Acircumflex" unicode="&#xc2;" horiz-adv-x="608" 
d="M273 675h61l248 -675h-61l-71 198h-294l-70 -198h-60zM174 249h258l-129 364zM392 745l-88 98l-88 -98h-62l120 138h60l120 -138h-62z" />
    <glyph glyph-name="Atilde" unicode="&#xc3;" horiz-adv-x="608" 
d="M273 675h61l248 -675h-61l-71 198h-294l-70 -198h-60zM174 249h258l-129 364zM375 742q-25 1 -44 12t-35.5 26t-31 26t-30.5 12q-34 0 -34 -57v-17h-50v19q0 48 22 74.5t61 26.5q25 -1 44 -12t35.5 -26t31 -26t30.5 -12q34 0 34 57v17h50v-19q0 -48 -22 -74.5t-61 -26.5z
" />
    <glyph glyph-name="Adieresis" unicode="&#xc4;" horiz-adv-x="608" 
d="M273 675h61l248 -675h-61l-71 198h-294l-70 -198h-60zM174 249h258l-129 364zM206 745q-18 0 -30.5 12.5t-12.5 30.5t12.5 30.5t30.5 12.5t30.5 -12.5t12.5 -30.5t-12.5 -30.5t-30.5 -12.5zM402 745q-18 0 -30.5 12.5t-12.5 30.5t12.5 30.5t30.5 12.5t30.5 -12.5
t12.5 -30.5t-12.5 -30.5t-30.5 -12.5z" />
    <glyph glyph-name="Aring" unicode="&#xc5;" horiz-adv-x="608" 
d="M273 675h61l248 -675h-61l-71 198h-294l-70 -198h-60zM174 249h258l-129 364zM304 723q-39 0 -65.5 25t-26.5 63q0 39 26 63.5t66 24.5q39 0 65.5 -25t26.5 -63t-26.5 -63t-65.5 -25zM304 760q22 0 36 14.5t14 36.5t-14 36.5t-36 14.5t-36 -14.5t-14 -36.5t14 -36.5
t36 -14.5z" />
    <glyph glyph-name="AE" unicode="&#xc6;" horiz-adv-x="900" 
d="M524 370h261v-51h-258l12 -268h306v-51h-357l-9 198h-279l-117 -198h-63l403 675h412v-51h-322zM230 249h247l-17 381h-5z" />
    <glyph glyph-name="Ccedilla" unicode="&#xc7;" horiz-adv-x="577" 
d="M340 -13q-92 0 -160 44t-104 122.5t-36 181.5q0 107 39 187t107 123t156 43q47 0 92 -14t76 -38v-61q-28 27 -73.5 43.5t-91.5 16.5q-76 0 -131 -37t-84 -104t-29 -156q0 -92 31 -159t86 -102.5t127 -35.5q99 0 177 66v-61q-77 -59 -182 -59zM354 16l-23 -90
q48 -1 76.5 -24t28.5 -61q0 -44 -33.5 -71t-87.5 -27q-33 0 -61 11v43q30 -11 60 -11q32 0 52 15.5t20 38.5q0 48 -77 48h-29l31 128h43z" />
    <glyph glyph-name="Egrave" unicode="&#xc8;" horiz-adv-x="525" 
d="M75 0v675h385v-51h-326v-254h276v-51h-276v-268h336v-51h-395zM238 745l-137 138h73l124 -138h-60z" />
    <glyph glyph-name="Eacute" unicode="&#xc9;" horiz-adv-x="525" 
d="M75 0v675h385v-51h-326v-254h276v-51h-276v-268h336v-51h-395zM233 745l124 138h73l-137 -138h-60z" />
    <glyph glyph-name="Ecircumflex" unicode="&#xca;" horiz-adv-x="525" 
d="M75 0v675h385v-51h-326v-254h276v-51h-276v-268h336v-51h-395zM355 745l-88 98l-88 -98h-62l120 138h60l120 -138h-62z" />
    <glyph glyph-name="Edieresis" unicode="&#xcb;" horiz-adv-x="525" 
d="M75 0v675h385v-51h-326v-254h276v-51h-276v-268h336v-51h-395zM169 745q-18 0 -30.5 12.5t-12.5 30.5t12.5 30.5t30.5 12.5t30.5 -12.5t12.5 -30.5t-12.5 -30.5t-30.5 -12.5zM365 745q-18 0 -30.5 12.5t-12.5 30.5t12.5 30.5t30.5 12.5t30.5 -12.5t12.5 -30.5
t-12.5 -30.5t-30.5 -12.5z" />
    <glyph glyph-name="Igrave" unicode="&#xcc;" horiz-adv-x="209" 
d="M75 0v675h59v-675h-59zM75 745l-137 138h73l124 -138h-60z" />
    <glyph glyph-name="Iacute" unicode="&#xcd;" horiz-adv-x="209" 
d="M75 0v675h59v-675h-59zM70 745l124 138h73l-137 -138h-60z" />
    <glyph glyph-name="Icircumflex" unicode="&#xce;" horiz-adv-x="209" 
d="M75 0v675h59v-675h-59zM192 745l-88 98l-88 -98h-62l120 138h60l120 -138h-62z" />
    <glyph glyph-name="Idieresis" unicode="&#xcf;" horiz-adv-x="209" 
d="M75 0v675h59v-675h-59zM6 745q-18 0 -30.5 12.5t-12.5 30.5t12.5 30.5t30.5 12.5t30.5 -12.5t12.5 -30.5t-12.5 -30.5t-30.5 -12.5zM202 745q-18 0 -30.5 12.5t-12.5 30.5t12.5 30.5t30.5 12.5t30.5 -12.5t12.5 -30.5t-12.5 -30.5t-30.5 -12.5z" />
    <glyph glyph-name="Eth" unicode="&#xd0;" horiz-adv-x="655" 
d="M10 362h94v313h161q165 0 257.5 -89t92.5 -247q0 -161 -95 -250t-268 -89h-148v314h-94v48zM163 624v-262h188v-48h-188v-263h92q143 0 221 74.5t78 211.5t-76.5 212t-215.5 75h-99z" />
    <glyph glyph-name="Ntilde" unicode="&#xd1;" horiz-adv-x="632" 
d="M75 0v675h64l361 -588v588h57v-675h-64l-361 587v-587h-57zM387 742q-25 1 -44 12t-35.5 26t-31 26t-30.5 12q-34 0 -34 -57v-17h-50v19q0 48 22 74.5t61 26.5q25 -1 44 -12t35.5 -26t31 -26t30.5 -12q34 0 34 57v17h50v-19q0 -48 -22 -74.5t-61 -26.5z" />
    <glyph glyph-name="Ograve" unicode="&#xd2;" horiz-adv-x="659" 
d="M331 40q103 0 165 81t62 217q0 90 -29.5 157.5t-81.5 103.5t-119 36q-103 0 -165 -81t-62 -217q0 -90 29.5 -157.5t81.5 -103.5t119 -36zM328 -13q-87 0 -152.5 45t-100.5 124t-35 180q0 106 37.5 186t103 123t150.5 43q87 0 152.5 -45t100.5 -124t35 -180
q0 -106 -37.5 -186t-103 -123t-150.5 -43zM300 745l-137 138h73l124 -138h-60z" />
    <glyph glyph-name="Oacute" unicode="&#xd3;" horiz-adv-x="659" 
d="M331 40q103 0 165 81t62 217q0 90 -29.5 157.5t-81.5 103.5t-119 36q-103 0 -165 -81t-62 -217q0 -90 29.5 -157.5t81.5 -103.5t119 -36zM328 -13q-87 0 -152.5 45t-100.5 124t-35 180q0 106 37.5 186t103 123t150.5 43q87 0 152.5 -45t100.5 -124t35 -180
q0 -106 -37.5 -186t-103 -123t-150.5 -43zM295 745l124 138h73l-137 -138h-60z" />
    <glyph glyph-name="Ocircumflex" unicode="&#xd4;" horiz-adv-x="659" 
d="M331 40q103 0 165 81t62 217q0 90 -29.5 157.5t-81.5 103.5t-119 36q-103 0 -165 -81t-62 -217q0 -90 29.5 -157.5t81.5 -103.5t119 -36zM328 -13q-87 0 -152.5 45t-100.5 124t-35 180q0 106 37.5 186t103 123t150.5 43q87 0 152.5 -45t100.5 -124t35 -180
q0 -106 -37.5 -186t-103 -123t-150.5 -43zM417 745l-88 98l-88 -98h-62l120 138h60l120 -138h-62z" />
    <glyph glyph-name="Otilde" unicode="&#xd5;" horiz-adv-x="659" 
d="M331 40q103 0 165 81t62 217q0 90 -29.5 157.5t-81.5 103.5t-119 36q-103 0 -165 -81t-62 -217q0 -90 29.5 -157.5t81.5 -103.5t119 -36zM328 -13q-87 0 -152.5 45t-100.5 124t-35 180q0 106 37.5 186t103 123t150.5 43q87 0 152.5 -45t100.5 -124t35 -180
q0 -106 -37.5 -186t-103 -123t-150.5 -43zM400 742q-25 1 -44 12t-35.5 26t-31 26t-30.5 12q-34 0 -34 -57v-17h-50v19q0 48 22 74.5t61 26.5q25 -1 44 -12t35.5 -26t31 -26t30.5 -12q34 0 34 57v17h50v-19q0 -48 -22 -74.5t-61 -26.5z" />
    <glyph glyph-name="Odieresis" unicode="&#xd6;" horiz-adv-x="659" 
d="M331 40q103 0 165 81t62 217q0 90 -29.5 157.5t-81.5 103.5t-119 36q-103 0 -165 -81t-62 -217q0 -90 29.5 -157.5t81.5 -103.5t119 -36zM328 -13q-87 0 -152.5 45t-100.5 124t-35 180q0 106 37.5 186t103 123t150.5 43q87 0 152.5 -45t100.5 -124t35 -180
q0 -106 -37.5 -186t-103 -123t-150.5 -43zM231 745q-18 0 -30.5 12.5t-12.5 30.5t12.5 30.5t30.5 12.5t30.5 -12.5t12.5 -30.5t-12.5 -30.5t-30.5 -12.5zM427 745q-18 0 -30.5 12.5t-12.5 30.5t12.5 30.5t30.5 12.5t30.5 -12.5t12.5 -30.5t-12.5 -30.5t-30.5 -12.5z" />
    <glyph glyph-name="multiply" unicode="&#xd7;" horiz-adv-x="560" 
d="M121 530l158 -160l159 160l34 -35l-159 -159l159 -158l-34 -34l-159 158l-158 -158l-34 34l158 158l-158 159z" />
    <glyph glyph-name="Oslash" unicode="&#xd8;" horiz-adv-x="659" 
d="M77 -7l52 79q-43 47 -66 114.5t-23 149.5q0 106 37.5 186t103 123t150.5 43q93 0 163 -53l48 73l40 -26l-52 -80q43 -46 66 -113.5t23 -149.5q0 -106 -37.5 -186t-103 -123t-150.5 -43q-94 0 -164 53l-47 -73zM331 40q103 0 165 81t62 217q0 64 -15.5 118.5t-45.5 94.5
l-301 -463q56 -48 135 -48zM101 337q0 -132 61 -213l301 463q-56 48 -135 48q-103 0 -165 -81t-62 -217z" />
    <glyph glyph-name="Ugrave" unicode="&#xd9;" horiz-adv-x="624" 
d="M314 -13q-57 0 -102.5 20t-77 56t-48 86t-16.5 110v416h59v-408q0 -107 49 -166.5t137 -59.5q83 0 131.5 59t48.5 159v416h59v-408q0 -127 -65.5 -203.5t-174.5 -76.5zM283 745l-137 138h73l124 -138h-60z" />
    <glyph glyph-name="Uacute" unicode="&#xda;" horiz-adv-x="624" 
d="M314 -13q-57 0 -102.5 20t-77 56t-48 86t-16.5 110v416h59v-408q0 -107 49 -166.5t137 -59.5q83 0 131.5 59t48.5 159v416h59v-408q0 -127 -65.5 -203.5t-174.5 -76.5zM278 745l124 138h73l-137 -138h-60z" />
    <glyph glyph-name="Ucircumflex" unicode="&#xdb;" horiz-adv-x="624" 
d="M314 -13q-57 0 -102.5 20t-77 56t-48 86t-16.5 110v416h59v-408q0 -107 49 -166.5t137 -59.5q83 0 131.5 59t48.5 159v416h59v-408q0 -127 -65.5 -203.5t-174.5 -76.5zM400 745l-88 98l-88 -98h-62l120 138h60l120 -138h-62z" />
    <glyph glyph-name="Udieresis" unicode="&#xdc;" horiz-adv-x="624" 
d="M314 -13q-57 0 -102.5 20t-77 56t-48 86t-16.5 110v416h59v-408q0 -107 49 -166.5t137 -59.5q83 0 131.5 59t48.5 159v416h59v-408q0 -127 -65.5 -203.5t-174.5 -76.5zM214 745q-18 0 -30.5 12.5t-12.5 30.5t12.5 30.5t30.5 12.5t30.5 -12.5t12.5 -30.5t-12.5 -30.5
t-30.5 -12.5zM410 745q-18 0 -30.5 12.5t-12.5 30.5t12.5 30.5t30.5 12.5t30.5 -12.5t12.5 -30.5t-12.5 -30.5t-30.5 -12.5z" />
    <glyph glyph-name="Yacute" unicode="&#xdd;" horiz-adv-x="547" 
d="M244 272l-228 403h64l194 -352l194 352h63l-228 -404v-271h-59v272zM239 745l124 138h73l-137 -138h-60z" />
    <glyph glyph-name="Thorn" unicode="&#xde;" horiz-adv-x="523" 
d="M75 675h59v-136h111q115 0 181.5 -53t66.5 -144q0 -97 -66.5 -151.5t-185.5 -54.5h-107v-136h-59v675zM134 489v-303h107q91 0 141 40t50 112t-49 111.5t-141 39.5h-108z" />
    <glyph glyph-name="germandbls" unicode="&#xdf;" horiz-adv-x="535" 
d="M68 506q0 122 48 187t138 65q74 0 117.5 -39t43.5 -106q0 -31 -12 -57.5t-40 -57.5t-39.5 -52t-11.5 -42q0 -24 15 -41t56 -42q42 -26 67 -50.5t36.5 -53.5t11.5 -68q0 -70 -49 -116t-124 -46q-77 0 -133 37v55q63 -42 129 -42q53 0 86.5 31t33.5 81q0 37 -20 64t-69 56
q-54 31 -75 60t-21 71q0 32 13 58.5t45 61.5q24 26 34 47t10 45q0 44 -28 70t-75 26q-64 0 -96.5 -49t-32.5 -146v-513h-58v506z" />
    <glyph glyph-name="agrave" unicode="&#xe0;" horiz-adv-x="489" 
d="M206 -13q-73 0 -117 40t-44 107q0 85 71.5 130t207.5 45h22t21 -1v4q0 82 -33 121.5t-101 39.5q-78 0 -148 -47v54q69 45 153 45q90 0 138.5 -53.5t48.5 -153.5v-318h-51l-4 75q-23 -41 -67.5 -64.5t-96.5 -23.5zM215 35q43 0 78 22t54.5 56t19.5 73v74q-18 1 -51 1
q-104 0 -158.5 -31t-54.5 -91q0 -47 30.5 -75.5t81.5 -28.5zM109 745h69l103 -149h-55z" />
    <glyph glyph-name="aacute" unicode="&#xe1;" horiz-adv-x="489" 
d="M206 -13q-73 0 -117 40t-44 107q0 85 71.5 130t207.5 45h22t21 -1v4q0 82 -33 121.5t-101 39.5q-78 0 -148 -47v54q69 45 153 45q90 0 138.5 -53.5t48.5 -153.5v-318h-51l-4 75q-23 -41 -67.5 -64.5t-96.5 -23.5zM215 35q43 0 78 22t54.5 56t19.5 73v74q-18 1 -51 1
q-104 0 -158.5 -31t-54.5 -91q0 -47 30.5 -75.5t81.5 -28.5zM268 596h-55l103 149h69z" />
    <glyph glyph-name="acircumflex" unicode="&#xe2;" horiz-adv-x="489" 
d="M206 -13q-73 0 -117 40t-44 107q0 85 71.5 130t207.5 45h22t21 -1v4q0 82 -33 121.5t-101 39.5q-78 0 -148 -47v54q69 45 153 45q90 0 138.5 -53.5t48.5 -153.5v-318h-51l-4 75q-23 -41 -67.5 -64.5t-96.5 -23.5zM215 35q43 0 78 22t54.5 56t19.5 73v74q-18 1 -51 1
q-104 0 -158.5 -31t-54.5 -91q0 -47 30.5 -75.5t81.5 -28.5zM333 596l-86 108l-86 -108h-54l110 149h60l110 -149h-54z" />
    <glyph glyph-name="atilde" unicode="&#xe3;" horiz-adv-x="489" 
d="M206 -13q-73 0 -117 40t-44 107q0 85 71.5 130t207.5 45h22t21 -1v4q0 82 -33 121.5t-101 39.5q-78 0 -148 -47v54q69 45 153 45q90 0 138.5 -53.5t48.5 -153.5v-318h-51l-4 75q-23 -41 -67.5 -64.5t-96.5 -23.5zM215 35q43 0 78 22t54.5 56t19.5 73v74q-18 1 -51 1
q-104 0 -158.5 -31t-54.5 -91q0 -47 30.5 -75.5t81.5 -28.5zM318 599q-25 1 -44 12t-35.5 26t-31 26t-30.5 12q-34 0 -34 -57v-17h-48v17q0 48 21 74.5t60 26.5q25 -1 44 -12t35.5 -26t31 -26t30.5 -12q34 0 34 57v17h48v-17q0 -48 -21 -74.5t-60 -26.5z" />
    <glyph glyph-name="adieresis" unicode="&#xe4;" horiz-adv-x="489" 
d="M206 -13q-73 0 -117 40t-44 107q0 85 71.5 130t207.5 45h22t21 -1v4q0 82 -33 121.5t-101 39.5q-78 0 -148 -47v54q69 45 153 45q90 0 138.5 -53.5t48.5 -153.5v-318h-51l-4 75q-23 -41 -67.5 -64.5t-96.5 -23.5zM215 35q43 0 78 22t54.5 56t19.5 73v74q-18 1 -51 1
q-104 0 -158.5 -31t-54.5 -91q0 -47 30.5 -75.5t81.5 -28.5zM155 631q-17 0 -29 12t-12 29t12 29t29 12t29 -12t12 -29t-12 -29t-29 -12zM339 631q-17 0 -29 12t-12 29t12 29t29 12t29 -12t12 -29t-12 -29t-29 -12z" />
    <glyph glyph-name="aring" unicode="&#xe5;" horiz-adv-x="489" 
d="M206 -13q-73 0 -117 40t-44 107q0 85 71.5 130t207.5 45h22t21 -1v4q0 82 -33 121.5t-101 39.5q-78 0 -148 -47v54q69 45 153 45q90 0 138.5 -53.5t48.5 -153.5v-318h-51l-4 75q-23 -41 -67.5 -64.5t-96.5 -23.5zM215 35q43 0 78 22t54.5 56t19.5 73v74q-18 1 -51 1
q-104 0 -158.5 -31t-54.5 -91q0 -47 30.5 -75.5t81.5 -28.5zM247 585q-39 0 -65 25t-26 63q0 39 25.5 63.5t65.5 24.5q39 0 65 -25t26 -63t-26 -63t-65 -25zM247 621q22 0 36 14.5t14 37.5t-14 37.5t-36 14.5t-36 -14.5t-14 -37.5t14 -37.5t36 -14.5z" />
    <glyph glyph-name="ae" unicode="&#xe6;" horiz-adv-x="818" 
d="M752 31q-65 -44 -152 -44q-69 0 -121.5 33t-79.5 94q-21 -57 -72.5 -92t-116.5 -35q-76 0 -120.5 39.5t-44.5 107.5q0 80 71.5 122.5t207.5 42.5h43v13q0 82 -33 121.5t-101 39.5q-78 0 -148 -47v54q69 45 153 45q130 0 167 -109q27 53 73 81t107 28q92 0 144.5 -66
t52.5 -182v-26h-357q2 -99 49.5 -155t130.5 -56t147 46v-55zM215 35q43 0 78 22t54.5 56t19.5 73v65h-51q-104 0 -158.5 -28.5t-54.5 -83.5q0 -47 30.5 -75.5t81.5 -28.5zM582 474q-67 0 -107.5 -45t-48.5 -130h300q-4 83 -42 129t-102 46z" />
    <glyph glyph-name="ccedilla" unicode="&#xe7;" horiz-adv-x="445" 
d="M269 -13q-106 0 -169 72.5t-63 195.5q0 82 30 143t82.5 94t120.5 33q76 0 123 -31v-56q-43 34 -120 34q-82 0 -129.5 -58t-47.5 -158q0 -98 48 -157t130 -59q72 0 128 38v-55q-61 -36 -133 -36zM280 16l-23 -90q49 -1 77.5 -23.5t28.5 -61.5q0 -44 -33.5 -71t-87.5 -27
q-33 0 -61 11v42q30 -11 60 -11q32 0 53 15.5t21 39.5q0 50 -79 50h-29l31 126h42z" />
    <glyph glyph-name="egrave" unicode="&#xe8;" horiz-adv-x="487" 
d="M269 -13q-107 0 -169.5 73t-62.5 198q0 82 27.5 142.5t76.5 92.5t113 32q92 0 144.5 -66t52.5 -182v-35h-357q5 -95 52 -148.5t128 -53.5q83 0 147 46v-55q-65 -44 -152 -44zM251 474q-69 0 -109.5 -48t-46.5 -136h301q-2 87 -40 135.5t-105 48.5zM106 745h69l103 -149
h-55z" />
    <glyph glyph-name="eacute" unicode="&#xe9;" horiz-adv-x="487" 
d="M269 -13q-107 0 -169.5 73t-62.5 198q0 82 27.5 142.5t76.5 92.5t113 32q92 0 144.5 -66t52.5 -182v-35h-357q5 -95 52 -148.5t128 -53.5q83 0 147 46v-55q-65 -44 -152 -44zM251 474q-69 0 -109.5 -48t-46.5 -136h301q-2 87 -40 135.5t-105 48.5zM265 596h-55l103 149
h69z" />
    <glyph glyph-name="ecircumflex" unicode="&#xea;" horiz-adv-x="487" 
d="M269 -13q-107 0 -169.5 73t-62.5 198q0 82 27.5 142.5t76.5 92.5t113 32q92 0 144.5 -66t52.5 -182v-35h-357q5 -95 52 -148.5t128 -53.5q83 0 147 46v-55q-65 -44 -152 -44zM251 474q-69 0 -109.5 -48t-46.5 -136h301q-2 87 -40 135.5t-105 48.5zM330 596l-86 108
l-86 -108h-54l110 149h60l110 -149h-54z" />
    <glyph glyph-name="edieresis" unicode="&#xeb;" horiz-adv-x="487" 
d="M269 -13q-107 0 -169.5 73t-62.5 198q0 82 27.5 142.5t76.5 92.5t113 32q92 0 144.5 -66t52.5 -182v-35h-357q5 -95 52 -148.5t128 -53.5q83 0 147 46v-55q-65 -44 -152 -44zM251 474q-69 0 -109.5 -48t-46.5 -136h301q-2 87 -40 135.5t-105 48.5zM152 631q-17 0 -29 12
t-12 29t12 29t29 12t29 -12t12 -29t-12 -29t-29 -12zM336 631q-17 0 -29 12t-12 29t12 29t29 12t29 -12t12 -29t-12 -29t-29 -12z" />
    <glyph glyph-name="igrave" unicode="&#xec;" horiz-adv-x="194" 
d="M68 512h58v-512h-58v512zM-41 745h69l103 -149h-55z" />
    <glyph glyph-name="iacute" unicode="&#xed;" horiz-adv-x="194" 
d="M68 512h58v-512h-58v512zM118 596h-55l103 149h69z" />
    <glyph glyph-name="icircumflex" unicode="&#xee;" horiz-adv-x="194" 
d="M68 512h58v-512h-58v512zM183 596l-86 108l-86 -108h-54l110 149h60l110 -149h-54z" />
    <glyph glyph-name="idieresis" unicode="&#xef;" horiz-adv-x="194" 
d="M68 512h58v-512h-58v512zM5 631q-17 0 -29 12t-12 29t12 29t29 12t29 -12t12 -29t-12 -29t-29 -12zM189 631q-17 0 -29 12t-12 29t12 29t29 12t29 -12t12 -29t-12 -29t-29 -12z" />
    <glyph glyph-name="eth" unicode="&#xf0;" horiz-adv-x="516" 
d="M384 724l-68 -49q83 -59 123 -147.5t40 -213.5q0 -152 -60 -239.5t-164 -87.5q-66 0 -115.5 33t-76 91t-26.5 133t27 132.5t72.5 89t103.5 31.5q128 0 182 -121q-8 91 -45.5 156t-107.5 110l-117 -83l-25 34l102 72q-33 16 -102 40v55q81 -24 139 -54l11 -6l82 58z
M253 39q47 0 83.5 27t56 73t19.5 104q0 61 -21 107.5t-57.5 71.5t-81.5 25q-47 0 -82.5 -26t-54.5 -72.5t-19 -106.5q0 -61 20.5 -107t56 -71t80.5 -25z" />
    <glyph glyph-name="ntilde" unicode="&#xf1;" horiz-adv-x="525" 
d="M68 512h51l4 -77q25 43 67 66.5t94 23.5q81 0 129 -55.5t48 -150.5v-319h-58v311q0 77 -34.5 119.5t-96.5 42.5q-65 0 -105.5 -45t-40.5 -116v-312h-58v512zM335 599q-25 1 -44 12t-35.5 26t-31 26t-30.5 12q-34 0 -34 -57v-17h-48v17q0 48 21 74.5t60 26.5q25 -1 44 -12
t35.5 -26t31 -26t30.5 -12q34 0 34 57v17h48v-17q0 -48 -21 -74.5t-60 -26.5z" />
    <glyph glyph-name="ograve" unicode="&#xf2;" horiz-adv-x="525" 
d="M262 -13q-68 0 -119 35t-78.5 95.5t-27.5 137.5q0 82 29.5 143t80.5 94t116 33q68 0 119.5 -34.5t78.5 -95t27 -138.5q0 -82 -29.5 -143t-80.5 -94t-116 -33zM263 39q76 0 121 59t45 158q0 98 -45.5 157.5t-121.5 59.5t-121 -58.5t-45 -158.5q0 -98 45.5 -157.5
t121.5 -59.5zM124 745h69l103 -149h-55z" />
    <glyph glyph-name="oacute" unicode="&#xf3;" horiz-adv-x="525" 
d="M262 -13q-68 0 -119 35t-78.5 95.5t-27.5 137.5q0 82 29.5 143t80.5 94t116 33q68 0 119.5 -34.5t78.5 -95t27 -138.5q0 -82 -29.5 -143t-80.5 -94t-116 -33zM263 39q76 0 121 59t45 158q0 98 -45.5 157.5t-121.5 59.5t-121 -58.5t-45 -158.5q0 -98 45.5 -157.5
t121.5 -59.5zM283 596h-55l103 149h69z" />
    <glyph glyph-name="ocircumflex" unicode="&#xf4;" horiz-adv-x="525" 
d="M262 -13q-68 0 -119 35t-78.5 95.5t-27.5 137.5q0 82 29.5 143t80.5 94t116 33q68 0 119.5 -34.5t78.5 -95t27 -138.5q0 -82 -29.5 -143t-80.5 -94t-116 -33zM263 39q76 0 121 59t45 158q0 98 -45.5 157.5t-121.5 59.5t-121 -58.5t-45 -158.5q0 -98 45.5 -157.5
t121.5 -59.5zM348 596l-86 108l-86 -108h-54l110 149h60l110 -149h-54z" />
    <glyph glyph-name="otilde" unicode="&#xf5;" horiz-adv-x="525" 
d="M262 -13q-68 0 -119 35t-78.5 95.5t-27.5 137.5q0 82 29.5 143t80.5 94t116 33q68 0 119.5 -34.5t78.5 -95t27 -138.5q0 -82 -29.5 -143t-80.5 -94t-116 -33zM263 39q76 0 121 59t45 158q0 98 -45.5 157.5t-121.5 59.5t-121 -58.5t-45 -158.5q0 -98 45.5 -157.5
t121.5 -59.5zM333 599q-25 1 -44 12t-35.5 26t-31 26t-30.5 12q-34 0 -34 -57v-17h-48v17q0 48 21 74.5t60 26.5q25 -1 44 -12t35.5 -26t31 -26t30.5 -12q34 0 34 57v17h48v-17q0 -48 -21 -74.5t-60 -26.5z" />
    <glyph glyph-name="odieresis" unicode="&#xf6;" horiz-adv-x="525" 
d="M262 -13q-68 0 -119 35t-78.5 95.5t-27.5 137.5q0 82 29.5 143t80.5 94t116 33q68 0 119.5 -34.5t78.5 -95t27 -138.5q0 -82 -29.5 -143t-80.5 -94t-116 -33zM263 39q76 0 121 59t45 158q0 98 -45.5 157.5t-121.5 59.5t-121 -58.5t-45 -158.5q0 -98 45.5 -157.5
t121.5 -59.5zM170 631q-17 0 -29 12t-12 29t12 29t29 12t29 -12t12 -29t-12 -29t-29 -12zM354 631q-17 0 -29 12t-12 29t12 29t29 12t29 -12t12 -29t-12 -29t-29 -12z" />
    <glyph glyph-name="divide" unicode="&#xf7;" horiz-adv-x="560" 
d="M279 117q-19 0 -32 13t-13 32q0 20 13 32.5t32 12.5q20 0 32.5 -12.5t12.5 -32.5q0 -19 -12.5 -32t-32.5 -13zM89 312v50h382v-50h-382zM279 467q-19 0 -32 13t-13 32q0 20 13 32.5t32 12.5q20 0 32.5 -12.5t12.5 -32.5q0 -19 -12.5 -32t-32.5 -13z" />
    <glyph glyph-name="oslash" unicode="&#xf8;" horiz-adv-x="525" 
d="M62 -8l42 64q-33 36 -50 87.5t-17 111.5q0 82 29.5 143t80.5 94t116 33q71 0 123 -37l38 57l39 -25l-42 -63q32 -36 49.5 -87.5t17.5 -112.5q0 -82 -29.5 -143t-80.5 -94t-116 -33q-71 0 -123 37l-38 -57zM263 39q76 0 121 59t45 158q0 92 -41 150l-219 -336
q40 -31 94 -31zM96 256q0 -93 40 -151l220 336q-40 32 -94 32q-76 0 -121 -58.5t-45 -158.5z" />
    <glyph glyph-name="ugrave" unicode="&#xf9;" horiz-adv-x="519" 
d="M237 -13q-80 0 -126.5 55.5t-46.5 150.5v319h58v-311q0 -77 34 -120t95 -43q62 0 102 45t40 116v313h58v-512h-51l-4 72q-25 -40 -66.5 -62.5t-92.5 -22.5zM119 745h69l103 -149h-55z" />
    <glyph glyph-name="uacute" unicode="&#xfa;" horiz-adv-x="519" 
d="M237 -13q-80 0 -126.5 55.5t-46.5 150.5v319h58v-311q0 -77 34 -120t95 -43q62 0 102 45t40 116v313h58v-512h-51l-4 72q-25 -40 -66.5 -62.5t-92.5 -22.5zM278 596h-55l103 149h69z" />
    <glyph glyph-name="ucircumflex" unicode="&#xfb;" horiz-adv-x="519" 
d="M237 -13q-80 0 -126.5 55.5t-46.5 150.5v319h58v-311q0 -77 34 -120t95 -43q62 0 102 45t40 116v313h58v-512h-51l-4 72q-25 -40 -66.5 -62.5t-92.5 -22.5zM343 596l-86 108l-86 -108h-54l110 149h60l110 -149h-54z" />
    <glyph glyph-name="udieresis" unicode="&#xfc;" horiz-adv-x="519" 
d="M237 -13q-80 0 -126.5 55.5t-46.5 150.5v319h58v-311q0 -77 34 -120t95 -43q62 0 102 45t40 116v313h58v-512h-51l-4 72q-25 -40 -66.5 -62.5t-92.5 -22.5zM165 631q-17 0 -29 12t-12 29t12 29t29 12t29 -12t12 -29t-12 -29t-29 -12zM349 631q-17 0 -29 12t-12 29t12 29
t29 12t29 -12t12 -29t-12 -29t-29 -12z" />
    <glyph glyph-name="yacute" unicode="&#xfd;" horiz-adv-x="465" 
d="M86 -203q-23 0 -41 6v52q17 -6 37 -6q39 0 64.5 29t53.5 105l11 30l-197 499h64l161 -429l151 429h61l-203 -547q-23 -63 -45.5 -99t-50 -52.5t-66.5 -16.5zM253 596h-55l103 149h69z" />
    <glyph glyph-name="thorn" unicode="&#xfe;" horiz-adv-x="538" 
d="M287 -13q-53 0 -94.5 25t-66.5 72v-274h-58v935h58v-322q24 47 69 74.5t99 27.5q63 0 110 -34.5t72 -94.5t25 -137q0 -124 -58.5 -198t-155.5 -74zM281 38q74 0 117.5 59t43.5 160q0 100 -43.5 158.5t-117.5 58.5q-71 0 -114 -59.5t-43 -156.5q0 -67 20.5 -117t56 -76.5
t80.5 -26.5z" />
    <glyph glyph-name="ydieresis" unicode="&#xff;" horiz-adv-x="465" 
d="M86 -203q-23 0 -41 6v52q17 -6 37 -6q39 0 64.5 29t53.5 105l11 30l-197 499h64l161 -429l151 429h61l-203 -547q-23 -63 -45.5 -99t-50 -52.5t-66.5 -16.5zM140 631q-17 0 -29 12t-12 29t12 29t29 12t29 -12t12 -29t-12 -29t-29 -12zM324 631q-17 0 -29 12t-12 29t12 29
t29 12t29 -12t12 -29t-12 -29t-29 -12z" />
    <glyph glyph-name="Abreve" unicode="&#x102;" horiz-adv-x="608" 
d="M273 675h61l248 -675h-61l-71 198h-294l-70 -198h-60zM174 249h258l-129 364zM304 732q-62 0 -98 34t-36 95h49q0 -40 22.5 -62.5t62.5 -22.5q42 0 63.5 22t21.5 63h49q0 -59 -37 -94t-97 -35z" />
    <glyph glyph-name="abreve" unicode="&#x103;" horiz-adv-x="489" 
d="M206 -13q-73 0 -117 40t-44 107q0 85 71.5 130t207.5 45h22t21 -1v4q0 82 -33 121.5t-101 39.5q-78 0 -148 -47v54q69 45 153 45q90 0 138.5 -53.5t48.5 -153.5v-318h-51l-4 75q-23 -41 -67.5 -64.5t-96.5 -23.5zM215 35q43 0 78 22t54.5 56t19.5 73v74q-18 1 -51 1
q-104 0 -158.5 -31t-54.5 -91q0 -47 30.5 -75.5t81.5 -28.5zM247 589q-62 0 -97 37t-35 102h47q0 -44 23.5 -70t61.5 -26q39 0 62 26t23 70h47q0 -62 -37 -100.5t-95 -38.5z" />
    <glyph glyph-name="dotlessi" unicode="&#x131;" horiz-adv-x="194" 
d="M68 512h58v-512h-58v512z" />
    <glyph glyph-name="IJ" unicode="&#x132;" horiz-adv-x="634" 
d="M75 0v675h59v-675h-59zM372 -13q-66 0 -125 33v57q58 -37 124 -37q68 0 101 39t33 118v478h59v-470q0 -107 -49 -162.5t-143 -55.5z" />
    <glyph glyph-name="ij" unicode="&#x133;" horiz-adv-x="388" 
d="M68 512h58v-512h-58v512zM97 629q-18 0 -30.5 12.5t-12.5 30.5t12.5 30.5t30.5 12.5t30.5 -12.5t12.5 -30.5t-12.5 -30.5t-30.5 -12.5zM190 -203q-34 0 -56 11v50q22 -11 50 -11q38 0 58 27.5t20 80.5v557h58v-551q0 -79 -33.5 -121.5t-96.5 -42.5zM291 629
q-18 0 -30.5 12.5t-12.5 30.5t12.5 30.5t30.5 12.5t30.5 -12.5t12.5 -30.5t-12.5 -30.5t-30.5 -12.5z" />
    <glyph glyph-name="OE" unicode="&#x152;" horiz-adv-x="911" 
d="M471 0q-49 -13 -119 -13q-96 0 -166.5 44t-108 122.5t-37.5 181.5q0 108 40 188t111 122.5t163 42.5q69 0 117 -13h375v-51h-318v-254h268v-51h-268v-268h328v-51h-385zM353 40q68 0 118 14v567q-50 14 -114 14q-119 0 -187.5 -79t-68.5 -218q0 -137 68 -217.5t184 -80.5
z" />
    <glyph glyph-name="oe" unicode="&#x153;" horiz-adv-x="876" 
d="M810 31q-65 -44 -152 -44q-74 0 -125.5 34.5t-77.5 100.5q-26 -64 -76 -99.5t-117 -35.5q-68 0 -119 35t-78.5 95.5t-27.5 137.5q0 82 29.5 143t80.5 94t116 33q67 0 116.5 -35t75.5 -99q24 64 73 99t115 35q92 0 144.5 -66t52.5 -182v-35h-357q5 -95 52 -148.5
t128 -53.5q83 0 147 46v-55zM263 39q76 0 121 59t45 158q0 98 -45.5 157.5t-121.5 59.5t-121 -58.5t-45 -158.5q0 -98 45.5 -157.5t121.5 -59.5zM640 474q-69 0 -109.5 -48t-46.5 -136h301q-2 87 -40 135.5t-105 48.5z" />
    <glyph glyph-name="Scedilla" unicode="&#x15e;" horiz-adv-x="490" 
d="M228 -13q-104 0 -188 48v61q90 -55 180 -55q78 0 124 36.5t46 98.5q0 53 -37.5 85t-132.5 62q-90 29 -128.5 72t-38.5 115q0 53 28.5 93.5t76.5 62.5t107 22q85 0 146 -39v-57q-64 43 -145 43q-70 0 -112 -33.5t-42 -90.5q0 -53 33.5 -84t113.5 -55q100 -30 145.5 -76
t45.5 -118q0 -57 -29 -100.5t-79.5 -67t-113.5 -23.5zM271 16l-23 -90q48 -1 76.5 -24t28.5 -61q0 -44 -33.5 -71t-87.5 -27q-33 0 -61 11v43q30 -11 60 -11q32 0 52 15.5t20 38.5q0 48 -77 48h-29l31 128h43z" />
    <glyph glyph-name="scedilla" unicode="&#x15f;" horiz-adv-x="398" 
d="M179 -13q-85 0 -147 37v55q69 -42 143 -42q59 0 94 26.5t35 70.5q0 38 -28.5 60.5t-99.5 43.5q-73 21 -106 55.5t-33 89.5q0 61 50 101.5t126 40.5q33 0 64.5 -7.5t54.5 -21.5v-53q-53 32 -118 32q-55 0 -88 -25t-33 -65q0 -38 24.5 -59t89.5 -40q85 -25 119.5 -59.5
t34.5 -94.5q0 -65 -50 -105t-132 -40zM220 16l-23 -90q49 -1 77.5 -23.5t28.5 -61.5q0 -44 -33.5 -71t-87.5 -27q-33 0 -61 11v42q30 -11 60 -11q32 0 53 15.5t21 39.5q0 50 -79 50h-29l31 126h42z" />
    <glyph glyph-name="Scaron" unicode="&#x160;" horiz-adv-x="490" 
d="M228 -13q-104 0 -188 48v61q90 -55 180 -55q78 0 124 36.5t46 98.5q0 53 -37.5 85t-132.5 62q-90 29 -128.5 72t-38.5 115q0 53 28.5 93.5t76.5 62.5t107 22q85 0 146 -39v-57q-64 43 -145 43q-70 0 -112 -33.5t-42 -90.5q0 -53 33.5 -84t113.5 -55q100 -30 145.5 -76
t45.5 -118q0 -57 -29 -100.5t-79.5 -67t-113.5 -23.5zM95 883h63l87 -98l87 98h63l-120 -138h-60z" />
    <glyph glyph-name="scaron" unicode="&#x161;" horiz-adv-x="398" 
d="M179 -13q-85 0 -147 37v55q69 -42 143 -42q59 0 94 26.5t35 70.5q0 38 -28.5 60.5t-99.5 43.5q-73 21 -106 55.5t-33 89.5q0 61 50 101.5t126 40.5q33 0 64.5 -7.5t54.5 -21.5v-53q-53 32 -118 32q-55 0 -88 -25t-33 -65q0 -38 24.5 -59t89.5 -40q85 -25 119.5 -59.5
t34.5 -94.5q0 -65 -50 -105t-132 -40zM73 745h54l86 -109l86 109h54l-110 -149h-60z" />
    <glyph glyph-name="uni0162" unicode="&#x162;" horiz-adv-x="557" 
d="M244 0v624h-219v51h497v-51h-219v-624h-59zM299 16l-23 -90q48 -1 76.5 -24t28.5 -61q0 -44 -33.5 -71t-87.5 -27q-33 0 -61 11v43q30 -11 60 -11q32 0 52 15.5t20 38.5q0 48 -77 48h-29l31 128h43z" />
    <glyph glyph-name="uni0163" unicode="&#x163;" horiz-adv-x="337" 
d="M226 -10q-65 0 -98.5 38.5t-33.5 111.5v324h-86v48h86v143h58v-143h132v-48h-132v-322q0 -53 20 -77.5t62 -24.5q31 0 67 18v-50q-33 -18 -75 -18zM215 16l-23 -90q49 -1 77.5 -23.5t28.5 -61.5q0 -44 -33.5 -71t-87.5 -27q-33 0 -61 11v42q30 -11 60 -11q32 0 53 15.5
t21 39.5q0 50 -79 50h-29l31 126h42z" />
    <glyph glyph-name="Wcircumflex" unicode="&#x174;" horiz-adv-x="838" 
d="M26 675h61l152 -601l150 571h61l151 -571l151 601h60l-181 -675h-62l-151 571l-150 -571h-60zM507 745l-88 98l-88 -98h-62l120 138h60l120 -138h-62z" />
    <glyph glyph-name="wcircumflex" unicode="&#x175;" horiz-adv-x="670" 
d="M14 512h61l113 -440l118 420h59l118 -420l113 440h60l-141 -512h-62l-119 418l-118 -418h-61zM421 596l-86 108l-86 -108h-54l110 149h60l110 -149h-54z" />
    <glyph glyph-name="Ycircumflex" unicode="&#x176;" horiz-adv-x="547" 
d="M244 272l-228 403h64l194 -352l194 352h63l-228 -404v-271h-59v272zM361 745l-88 98l-88 -98h-62l120 138h60l120 -138h-62z" />
    <glyph glyph-name="ycircumflex" unicode="&#x177;" horiz-adv-x="465" 
d="M86 -203q-23 0 -41 6v52q17 -6 37 -6q39 0 64.5 29t53.5 105l11 30l-197 499h64l161 -429l151 429h61l-203 -547q-23 -63 -45.5 -99t-50 -52.5t-66.5 -16.5zM318 596l-86 108l-86 -108h-54l110 149h60l110 -149h-54z" />
    <glyph glyph-name="Ydieresis" unicode="&#x178;" horiz-adv-x="547" 
d="M244 272l-228 403h64l194 -352l194 352h63l-228 -404v-271h-59v272zM175 745q-18 0 -30.5 12.5t-12.5 30.5t12.5 30.5t30.5 12.5t30.5 -12.5t12.5 -30.5t-12.5 -30.5t-30.5 -12.5zM371 745q-18 0 -30.5 12.5t-12.5 30.5t12.5 30.5t30.5 12.5t30.5 -12.5t12.5 -30.5
t-12.5 -30.5t-30.5 -12.5z" />
    <glyph glyph-name="Zcaron" unicode="&#x17d;" horiz-adv-x="542" 
d="M44 0v45l387 579h-370v51h435v-45l-387 -579h397v-51h-462zM125 883h63l87 -98l87 98h63l-120 -138h-60z" />
    <glyph glyph-name="zcaron" unicode="&#x17e;" horiz-adv-x="465" 
d="M41 48l311 415h-296v49h361v-48l-311 -415h320v-49h-385v48zM96 745h54l86 -109l86 109h54l-110 -149h-60z" />
    <glyph glyph-name="uni0218" unicode="&#x218;" horiz-adv-x="490" 
d="M228 -13q-104 0 -188 48v61q90 -55 180 -55q78 0 124 36.5t46 98.5q0 53 -37.5 85t-132.5 62q-90 29 -128.5 72t-38.5 115q0 53 28.5 93.5t76.5 62.5t107 22q85 0 146 -39v-57q-64 43 -145 43q-70 0 -112 -33.5t-42 -90.5q0 -53 33.5 -84t113.5 -55q100 -30 145.5 -76
t45.5 -118q0 -57 -29 -100.5t-79.5 -67t-113.5 -23.5zM156 -251q61 88 61 187h57q0 -99 -69 -187h-49z" />
    <glyph glyph-name="uni0219" unicode="&#x219;" horiz-adv-x="398" 
d="M179 -13q-85 0 -147 37v55q69 -42 143 -42q59 0 94 26.5t35 70.5q0 38 -28.5 60.5t-99.5 43.5q-73 21 -106 55.5t-33 89.5q0 61 50 101.5t126 40.5q33 0 64.5 -7.5t54.5 -21.5v-53q-53 32 -118 32q-55 0 -88 -25t-33 -65q0 -38 24.5 -59t89.5 -40q85 -25 119.5 -59.5
t34.5 -94.5q0 -65 -50 -105t-132 -40zM108 -251q61 88 61 187h55q0 -99 -69 -187h-47z" />
    <glyph glyph-name="uni021A" unicode="&#x21a;" horiz-adv-x="547" 
d="M244 0v624h-219v51h497v-51h-219v-624h-59zM184 -251q61 88 61 187h57q0 -99 -69 -187h-49z" />
    <glyph glyph-name="uni021B" unicode="&#x21b;" horiz-adv-x="337" 
d="M226 -10q-65 0 -98.5 38.5t-33.5 111.5v324h-86v48h86v143h58v-143h132v-48h-132v-322q0 -53 20 -77.5t62 -24.5q31 0 67 18v-50q-33 -18 -75 -18zM113 -251q61 88 61 187h55q0 -99 -69 -187h-47z" />
    <glyph glyph-name="uni0237" unicode="&#x237;" horiz-adv-x="194" 
d="M-4 -203q-34 0 -56 11v50q22 -11 50 -11q38 0 58 27.5t20 80.5v557h58v-551q0 -79 -33.5 -121.5t-96.5 -42.5z" />
    <glyph glyph-name="circumflex" unicode="&#x2c6;" horiz-adv-x="500" 
d="M336 596l-86 108l-86 -108h-54l110 149h60l110 -149h-54z" />
    <glyph glyph-name="caron" unicode="&#x2c7;" horiz-adv-x="500" 
d="M110 745h54l86 -109l86 109h54l-110 -149h-60z" />
    <glyph glyph-name="uni02CB" unicode="&#x2cb;" horiz-adv-x="500" 
d="M164 745h69l103 -149h-55z" />
    <glyph glyph-name="breve" unicode="&#x2d8;" horiz-adv-x="500" 
d="M250 589q-62 0 -97 37t-35 102h47q0 -44 23.5 -70t61.5 -26q39 0 62 26t23 70h47q0 -62 -37 -100.5t-95 -38.5z" />
    <glyph glyph-name="ring" unicode="&#x2da;" horiz-adv-x="500" 
d="M250 585q-39 0 -65 25t-26 63q0 39 25.5 63.5t65.5 24.5q39 0 65 -25t26 -63t-26 -63t-65 -25zM250 621q22 0 36 14.5t14 37.5t-14 37.5t-36 14.5t-36 -14.5t-14 -37.5t14 -37.5t36 -14.5z" />
    <glyph glyph-name="tilde" unicode="&#x2dc;" horiz-adv-x="500" 
d="M321 599q-25 1 -44 12t-35.5 26t-31 26t-30.5 12q-34 0 -34 -57v-17h-48v17q0 48 21 74.5t60 26.5q25 -1 44 -12t35.5 -26t31 -26t30.5 -12q34 0 34 57v17h48v-17q0 -48 -21 -74.5t-60 -26.5z" />
    <glyph glyph-name="gravecomb" unicode="&#x300;" horiz-adv-x="0" 
d="M-138 745h69l103 -149h-55z" />
    <glyph glyph-name="acutecomb" unicode="&#x301;" horiz-adv-x="0" 
d="M21 596h-55l103 149h69z" />
    <glyph glyph-name="uni0302" unicode="&#x302;" horiz-adv-x="0" 
d="M86 596l-86 108l-86 -108h-54l110 149h60l110 -149h-54z" />
    <glyph glyph-name="tildecomb" unicode="&#x303;" horiz-adv-x="0" 
d="M71 599q-25 1 -44 12t-35.5 26t-31 26t-30.5 12q-34 0 -34 -57v-17h-48v17q0 48 21 74.5t60 26.5q25 -1 44 -12t35.5 -26t31 -26t30.5 -12q34 0 34 57v17h48v-17q0 -48 -21 -74.5t-60 -26.5z" />
    <glyph glyph-name="uni0306" unicode="&#x306;" horiz-adv-x="0" 
d="M0 589q-62 0 -97 37t-35 102h47q0 -44 23.5 -70t61.5 -26q39 0 62 26t23 70h47q0 -62 -37 -100.5t-95 -38.5z" />
    <glyph glyph-name="uni0308" unicode="&#x308;" horiz-adv-x="0" 
d="M-92 631q-17 0 -29 12t-12 29t12 29t29 12t29 -12t12 -29t-12 -29t-29 -12zM92 631q-17 0 -29 12t-12 29t12 29t29 12t29 -12t12 -29t-12 -29t-29 -12z" />
    <glyph glyph-name="uni030A" unicode="&#x30a;" horiz-adv-x="0" 
d="M0 585q-39 0 -65 25t-26 63q0 39 25.5 63.5t65.5 24.5q39 0 65 -25t26 -63t-26 -63t-65 -25zM0 621q22 0 36 14.5t14 37.5t-14 37.5t-36 14.5t-36 -14.5t-14 -37.5t14 -37.5t36 -14.5z" />
    <glyph glyph-name="uni030C" unicode="&#x30c;" horiz-adv-x="0" 
d="M-140 745h54l86 -109l86 109h54l-110 -149h-60z" />
    <glyph glyph-name="uni0326" unicode="&#x326;" horiz-adv-x="0" 
d="M-88 -251q61 88 61 187h55q0 -99 -69 -187h-47z" />
    <glyph glyph-name="uni0327" unicode="&#x327;" horiz-adv-x="0" 
d="M24 16l-23 -90q49 -1 77.5 -23.5t28.5 -61.5q0 -44 -33.5 -71t-87.5 -27q-33 0 -61 11v42q30 -11 60 -11q32 0 53 15.5t21 39.5q0 50 -79 50h-29l31 126h42z" />
    <glyph glyph-name="Wgrave" unicode="&#x1e80;" horiz-adv-x="838" 
d="M26 675h61l152 -601l150 571h61l151 -571l151 601h60l-181 -675h-62l-151 571l-150 -571h-60zM390 745l-137 138h73l124 -138h-60z" />
    <glyph glyph-name="wgrave" unicode="&#x1e81;" horiz-adv-x="670" 
d="M14 512h61l113 -440l118 420h59l118 -420l113 440h60l-141 -512h-62l-119 418l-118 -418h-61zM197 745h69l103 -149h-55z" />
    <glyph glyph-name="Wacute" unicode="&#x1e82;" horiz-adv-x="838" 
d="M26 675h61l152 -601l150 571h61l151 -571l151 601h60l-181 -675h-62l-151 571l-150 -571h-60zM385 745l124 138h73l-137 -138h-60z" />
    <glyph glyph-name="wacute" unicode="&#x1e83;" horiz-adv-x="670" 
d="M14 512h61l113 -440l118 420h59l118 -420l113 440h60l-141 -512h-62l-119 418l-118 -418h-61zM356 596h-55l103 149h69z" />
    <glyph glyph-name="Wdieresis" unicode="&#x1e84;" horiz-adv-x="838" 
d="M26 675h61l152 -601l150 571h61l151 -571l151 601h60l-181 -675h-62l-151 571l-150 -571h-60zM321 745q-18 0 -30.5 12.5t-12.5 30.5t12.5 30.5t30.5 12.5t30.5 -12.5t12.5 -30.5t-12.5 -30.5t-30.5 -12.5zM517 745q-18 0 -30.5 12.5t-12.5 30.5t12.5 30.5t30.5 12.5
t30.5 -12.5t12.5 -30.5t-12.5 -30.5t-30.5 -12.5z" />
    <glyph glyph-name="wdieresis" unicode="&#x1e85;" horiz-adv-x="670" 
d="M14 512h61l113 -440l118 420h59l118 -420l113 440h60l-141 -512h-62l-119 418l-118 -418h-61zM243 631q-17 0 -29 12t-12 29t12 29t29 12t29 -12t12 -29t-12 -29t-29 -12zM427 631q-17 0 -29 12t-12 29t12 29t29 12t29 -12t12 -29t-12 -29t-29 -12z" />
    <glyph glyph-name="uni1E9E" unicode="&#x1e9e;" horiz-adv-x="619" 
d="M322 688q63 0 118.5 -19.5t93.5 -54.5v-43l-171 -184q65 -2 115 -27.5t75.5 -68.5t25.5 -99q0 -62 -29 -108.5t-79 -71.5t-112 -25q-73 0 -142 33v56q70 -35 141 -35q50 0 86 19.5t55.5 54t19.5 74.5q0 72 -45.5 108.5t-133.5 36.5h-52v41l193 214q-61 45 -160 45
q-91 0 -141.5 -57.5t-50.5 -161.5v-415h-59v407q0 132 67.5 206.5t184.5 74.5z" />
    <glyph glyph-name="Ygrave" unicode="&#x1ef2;" horiz-adv-x="547" 
d="M244 272l-228 403h64l194 -352l194 352h63l-228 -404v-271h-59v272zM244 745l-137 138h73l124 -138h-60z" />
    <glyph glyph-name="ygrave" unicode="&#x1ef3;" horiz-adv-x="465" 
d="M86 -203q-23 0 -41 6v52q17 -6 37 -6q39 0 64.5 29t53.5 105l11 30l-197 499h64l161 -429l151 429h61l-203 -547q-23 -63 -45.5 -99t-50 -52.5t-66.5 -16.5zM94 745h69l103 -149h-55z" />
    <glyph glyph-name="uni2000" unicode="&#x2000;" horiz-adv-x="500" 
 />
    <glyph glyph-name="uni2001" unicode="&#x2001;" horiz-adv-x="1000" 
 />
    <glyph glyph-name="uni2002" unicode="&#x2002;" horiz-adv-x="500" 
 />
    <glyph glyph-name="uni2003" unicode="&#x2003;" horiz-adv-x="1000" 
 />
    <glyph glyph-name="uni2004" unicode="&#x2004;" horiz-adv-x="333" 
 />
    <glyph glyph-name="uni2005" unicode="&#x2005;" horiz-adv-x="250" 
 />
    <glyph glyph-name="uni2006" unicode="&#x2006;" horiz-adv-x="166" 
 />
    <glyph glyph-name="uni2007" unicode="&#x2007;" horiz-adv-x="560" 
 />
    <glyph glyph-name="uni2008" unicode="&#x2008;" horiz-adv-x="198" 
 />
    <glyph glyph-name="uni2009" unicode="&#x2009;" horiz-adv-x="200" 
 />
    <glyph glyph-name="uni200A" unicode="&#x200a;" horiz-adv-x="55" 
 />
    <glyph glyph-name="uni200B" unicode="&#x200b;" horiz-adv-x="0" 
 />
    <glyph glyph-name="endash" unicode="&#x2013;" horiz-adv-x="500" 
d="M0 304h500v-46h-500v46z" />
    <glyph glyph-name="emdash" unicode="&#x2014;" horiz-adv-x="1000" 
d="M0 304h1000v-46h-1000v46z" />
    <glyph glyph-name="quoteleft" unicode="&#x2018;" horiz-adv-x="196" 
d="M181 675q-36 -51 -55.5 -109.5t-19.5 -117.5h-56q0 59 21 117.5t61 109.5h49z" />
    <glyph glyph-name="quoteright" unicode="&#x2019;" horiz-adv-x="196" 
d="M15 448q36 51 55.5 109.5t19.5 117.5h56q0 -59 -21 -117.5t-61 -109.5h-49z" />
    <glyph glyph-name="quotesinglbase" unicode="&#x201a;" horiz-adv-x="196" 
d="M15 -123q36 51 55.5 109.5t19.5 117.5h56q0 -59 -21 -117.5t-61 -109.5h-49z" />
    <glyph glyph-name="quotedblleft" unicode="&#x201c;" horiz-adv-x="321" 
d="M181 675q-36 -51 -55.5 -109.5t-19.5 -117.5h-56q0 59 21 117.5t61 109.5h49zM306 675q-36 -51 -55.5 -109.5t-19.5 -117.5h-56q0 59 21 117.5t61 109.5h49z" />
    <glyph glyph-name="quotedblright" unicode="&#x201d;" horiz-adv-x="321" 
d="M15 448q36 51 55.5 109.5t19.5 117.5h56q0 -59 -21 -117.5t-61 -109.5h-49zM140 448q36 51 55.5 109.5t19.5 117.5h56q0 -59 -21 -117.5t-61 -109.5h-49z" />
    <glyph glyph-name="quotedblbase" unicode="&#x201e;" horiz-adv-x="321" 
d="M15 -123q36 51 55.5 109.5t19.5 117.5h56q0 -59 -21 -117.5t-61 -109.5h-49zM140 -123q36 51 55.5 109.5t19.5 117.5h56q0 -59 -21 -117.5t-61 -109.5h-49z" />
    <glyph glyph-name="bullet" unicode="&#x2022;" horiz-adv-x="284" 
d="M142 189q-40 0 -66 26t-26 66t26 66t66 26q41 0 66.5 -25.5t25.5 -66.5q0 -40 -26 -66t-66 -26z" />
    <glyph glyph-name="ellipsis" unicode="&#x2026;" horiz-adv-x="594" 
d="M99 -6q-19 0 -32 13t-13 32q0 20 13 32.5t32 12.5q20 0 32.5 -12.5t12.5 -32.5q0 -19 -12.5 -32t-32.5 -13zM297 -6q-19 0 -32 13t-13 32q0 20 13 32.5t32 12.5q20 0 32.5 -12.5t12.5 -32.5q0 -19 -12.5 -32t-32.5 -13zM495 -6q-19 0 -32 13t-13 32q0 20 13 32.5t32 12.5
q20 0 32.5 -12.5t12.5 -32.5q0 -19 -12.5 -32t-32.5 -13z" />
    <glyph glyph-name="guilsinglleft" unicode="&#x2039;" horiz-adv-x="282" 
d="M101 280l131 -173h-61l-131 173l131 173h61z" />
    <glyph glyph-name="guilsinglright" unicode="&#x203a;" horiz-adv-x="282" 
d="M181 280l-131 173h61l131 -173l-131 -173h-61z" />
    <glyph glyph-name="fraction" unicode="&#x2044;" horiz-adv-x="45" 
d="M-213 0l411 675h59l-411 -675h-59z" />
    <glyph glyph-name="uni2070" unicode="&#x2070;" 
d="M181 420q-66 0 -105 53.5t-39 140.5q0 91 39.5 145t106.5 54q66 0 105 -53.5t39 -140.5q0 -91 -39.5 -145t-106.5 -54zM182 465q43 0 68 41.5t25 111.5q0 69 -25 109.5t-68 40.5t-68 -41.5t-25 -111.5q0 -69 25 -109.5t68 -40.5z" />
    <glyph glyph-name="uni2074" unicode="&#x2074;" 
d="M226 433v81h-186v42l182 244h52v-244h54v-42h-54v-81h-48zM226 556v182l-137 -182h137z" />
    <glyph glyph-name="uni2075" unicode="&#x2075;" 
d="M166 420q-55 0 -109 31v50q52 -36 107 -36q43 0 66.5 20t23.5 56q0 34 -26.5 53.5t-73.5 19.5q-38 0 -83 -10l26 196h197v-45h-156l-14 -101q19 4 44 4q63 0 100.5 -31t37.5 -82q0 -56 -38.5 -90.5t-101.5 -34.5z" />
    <glyph glyph-name="uni2076" unicode="&#x2076;" 
d="M187 420q-65 0 -101.5 46.5t-36.5 129.5q0 104 44 160.5t125 56.5q42 0 80 -22v-49q-38 26 -84 26q-108 0 -115 -145q33 50 98 50q56 0 90.5 -34.5t34.5 -90.5q0 -55 -38.5 -91.5t-96.5 -36.5zM188 463q36 0 59.5 23.5t23.5 59.5q0 39 -21.5 61.5t-59.5 22.5
q-37 0 -61 -23.5t-24 -58.5q0 -37 23.5 -61t59.5 -24z" />
    <glyph glyph-name="uni2077" unicode="&#x2077;" 
d="M261 755h-200v45h252v-44l-162 -323h-53z" />
    <glyph glyph-name="uni2078" unicode="&#x2078;" 
d="M182 420q-61 0 -99 31t-38 80q0 33 18 58t50 36q-27 11 -41 33t-14 52q0 45 35 74t90 29t89.5 -28.5t34.5 -74.5q0 -29 -14.5 -51t-40.5 -34q32 -11 50 -35.5t18 -57.5q0 -50 -38 -81t-100 -31zM182 462q39 0 62.5 19t23.5 51q0 33 -24 53t-62 20t-61.5 -20t-23.5 -53
q0 -32 23 -51t62 -19zM182 643q34 0 53.5 18t19.5 48q0 27 -20 44.5t-53 17.5q-32 0 -52 -17.5t-20 -44.5q0 -30 19.5 -48t52.5 -18z" />
    <glyph glyph-name="uni2079" unicode="&#x2079;" 
d="M177 813q65 0 101.5 -46.5t36.5 -129.5q0 -104 -44 -160.5t-125 -56.5q-42 0 -80 22v49q38 -26 84 -26q108 0 114 145q-15 -24 -40 -37t-57 -13q-56 0 -90.5 34.5t-34.5 90.5q0 55 38.5 91.5t96.5 36.5zM176 770q-36 0 -59.5 -23.5t-23.5 -59.5q0 -39 21.5 -61.5
t59.5 -22.5q37 0 61 23.5t24 58.5q0 37 -23.5 61t-59.5 24z" />
    <glyph glyph-name="uni2080" unicode="&#x2080;" 
d="M181 -130q-66 0 -105 53.5t-39 140.5q0 91 39.5 145t106.5 54q66 0 105 -53.5t39 -140.5q0 -91 -39.5 -145t-106.5 -54zM182 -85q43 0 68 41.5t25 111.5q0 69 -25 109.5t-68 40.5t-68 -41.5t-25 -111.5q0 -69 25 -109.5t68 -40.5z" />
    <glyph glyph-name="uni2081" unicode="&#x2081;" 
d="M198 -117v319l-113 -67v47l113 68h49v-367h-49z" />
    <glyph glyph-name="uni2082" unicode="&#x2082;" 
d="M49 -75l111 97q43 38 61.5 67t18.5 59q0 32 -21.5 51t-56.5 19q-54 0 -100 -34v48q42 31 102 31q56 0 92 -32t36 -82q0 -38 -21.5 -75t-67.5 -76l-82 -70h181v-45h-253v42z" />
    <glyph glyph-name="uni2083" unicode="&#x2083;" 
d="M164 -130q-62 0 -118 37v49q55 -41 112 -41q43 0 67.5 19t24.5 53q0 32 -24 49.5t-68 17.5h-52v43h53q39 0 59.5 17t20.5 47q0 26 -21 41.5t-57 15.5q-51 0 -99 -32v48q42 29 102 29q58 0 93 -28t35 -73q0 -28 -15.5 -51t-41.5 -34q31 -10 49 -34.5t18 -58.5
q0 -51 -38 -82.5t-100 -31.5z" />
    <glyph glyph-name="uni2084" unicode="&#x2084;" 
d="M226 -117v81h-186v42l182 244h52v-244h54v-42h-54v-81h-48zM226 6v182l-137 -182h137z" />
    <glyph glyph-name="uni2085" unicode="&#x2085;" 
d="M166 -130q-55 0 -109 31v50q52 -36 107 -36q43 0 66.5 20t23.5 56q0 34 -26.5 53.5t-73.5 19.5q-38 0 -83 -10l26 196h197v-45h-156l-14 -101q19 4 44 4q63 0 100.5 -31t37.5 -82q0 -56 -38.5 -90.5t-101.5 -34.5z" />
    <glyph glyph-name="uni2086" unicode="&#x2086;" 
d="M187 -130q-65 0 -101.5 46.5t-36.5 129.5q0 104 44 160.5t125 56.5q42 0 80 -22v-49q-38 26 -84 26q-108 0 -115 -145q33 50 98 50q56 0 90.5 -34.5t34.5 -90.5q0 -55 -38.5 -91.5t-96.5 -36.5zM188 -87q36 0 59.5 23.5t23.5 59.5q0 39 -21.5 61.5t-59.5 22.5
q-37 0 -61 -23.5t-24 -58.5q0 -37 23.5 -61t59.5 -24z" />
    <glyph glyph-name="uni2087" unicode="&#x2087;" 
d="M261 205h-200v45h252v-44l-162 -323h-53z" />
    <glyph glyph-name="uni2088" unicode="&#x2088;" 
d="M182 -130q-61 0 -99 31t-38 80q0 33 18 58t50 36q-27 11 -41 33t-14 52q0 45 35 74t90 29t89.5 -28.5t34.5 -74.5q0 -29 -14.5 -51t-40.5 -34q32 -11 50 -35.5t18 -57.5q0 -50 -38 -81t-100 -31zM182 -88q39 0 62.5 19t23.5 51q0 33 -24 53t-62 20t-61.5 -20t-23.5 -53
q0 -32 23 -51t62 -19zM182 93q34 0 53.5 18t19.5 48q0 27 -20 44.5t-53 17.5q-32 0 -52 -17.5t-20 -44.5q0 -30 19.5 -48t52.5 -18z" />
    <glyph glyph-name="uni2089" unicode="&#x2089;" 
d="M177 263q65 0 101.5 -46.5t36.5 -129.5q0 -104 -44 -160.5t-125 -56.5q-42 0 -80 22v49q38 -26 84 -26q108 0 114 145q-15 -24 -40 -37t-57 -13q-56 0 -90.5 34.5t-34.5 90.5q0 55 38.5 91.5t96.5 36.5zM176 220q-36 0 -59.5 -23.5t-23.5 -59.5q0 -39 21.5 -61.5
t59.5 -22.5q37 0 61 23.5t24 58.5q0 37 -23.5 61t-59.5 24z" />
    <glyph glyph-name="Euro" unicode="&#x20ac;" horiz-adv-x="560" 
d="M191 252q16 -99 67 -155.5t125 -56.5q73 0 138 43v-55q-65 -41 -143 -41q-66 0 -118 32t-85 91.5t-44 141.5h-74v46h70q-1 12 -1 39v19.5t1 19.5h-70v46h75q12 82 47 142.5t86.5 92t113.5 31.5q78 0 133 -41v-56q-25 21 -59 32.5t-71 11.5q-75 0 -125.5 -56.5
t-65.5 -156.5h253v-46h-258q-1 -10 -1 -19v-19v-20t1 -20h258v-46h-253z" />
    <glyph glyph-name="uni20BA" unicode="&#x20ba;" horiz-adv-x="560" 
d="M201 265v-215h50q97 0 150.5 53.5t53.5 150.5v27h57v-31q0 -114 -70 -182t-188 -68h-110v238l-97 -47v50l97 47v97l-97 -47v50l97 47v240h57v-213l184 90v-50l-184 -90v-97l184 90v-50z" />
    <glyph glyph-name="uni20BD" unicode="&#x20bd;" horiz-adv-x="560" 
d="M52 330h79v345h129q109 0 172.5 -52t63.5 -142q0 -92 -63 -144.5t-174 -52.5h-71v-83h198v-46h-198v-155h-57v155h-79v46h79v83h-79v46zM188 626v-295h69q86 0 133.5 38.5t47.5 107.5q0 73 -46.5 111t-134.5 38h-69z" />
    <glyph glyph-name="trademark" unicode="&#x2122;" horiz-adv-x="769" 
d="M132 318v316h-112v41h274v-41h-113v-316h-49zM343 318l24 357h56l105 -262l108 262h54l24 -357h-48l-19 285l-98 -246h-42l-99 244l-17 -283h-48z" />
    <glyph glyph-name="minus" unicode="&#x2212;" horiz-adv-x="560" 
d="M89 312v50h382v-50h-382z" />
    <glyph glyph-name="fi" unicode="&#xfb01;" horiz-adv-x="510" 
d="M92 464h-84v48h84v74q0 83 39 127.5t112 44.5q34 0 65 -13v-51q-28 14 -64 14q-94 0 -94 -115v-81h136v-48h-136v-464h-58v464zM384 512h58v-512h-58v512zM413 629q-18 0 -30.5 12.5t-12.5 30.5t12.5 30.5t30.5 12.5t30.5 -12.5t12.5 -30.5t-12.5 -30.5t-30.5 -12.5z" />
    <glyph glyph-name="fl" unicode="&#xfb02;" horiz-adv-x="510" 
d="M92 464h-84v48h84v74q0 83 39 127.5t112 44.5q34 0 65 -13v-51q-28 14 -64 14q-94 0 -94 -115v-81h136v-48h-136v-464h-58v464zM384 745h58v-745h-58v745z" />
    <glyph glyph-name="uniFEFF" unicode="&#xfeff;" horiz-adv-x="0" 
 />
    <glyph glyph-name="zero.tnum" horiz-adv-x="560" 
d="M281 -13q-109 0 -169.5 91.5t-60.5 258.5t60 259t168 92q109 0 169.5 -91.5t60.5 -258.5t-60 -259t-168 -92zM281 40q78 0 123 79.5t45 218.5q0 140 -45 218.5t-125 78.5q-78 0 -123 -79.5t-45 -218.5q0 -140 45 -218.5t125 -78.5z" />
    <glyph glyph-name="one.tnum" horiz-adv-x="560" 
d="M105 53h176v563l-176 -105v58l176 106h57v-622h159v-53h-392v53z" />
    <glyph glyph-name="two.tnum" horiz-adv-x="560" 
d="M67 51l211 223q63 66 88.5 116.5t25.5 106.5q0 63 -38.5 100.5t-102.5 37.5q-89 0 -160 -54v56q32 24 75 37.5t89 13.5q58 0 103 -24.5t69.5 -67t24.5 -95.5q0 -64 -31 -124.5t-104 -137.5l-176 -186h330v-53h-404v51z" />
    <glyph glyph-name="three.tnum" horiz-adv-x="560" 
d="M256 -13q-101 0 -183 51v60q40 -28 85 -43t91 -15q79 0 124.5 39t45.5 106q0 69 -44 106t-126 37h-65v51h66q70 0 109.5 35.5t39.5 98.5q0 57 -38.5 90t-106.5 33q-74 0 -151 -49v54q69 47 158 47q90 0 144 -48t54 -128q0 -50 -29 -92t-79 -64q60 -19 93.5 -63.5
t33.5 -107.5q0 -88 -61.5 -143t-160.5 -55z" />
    <glyph glyph-name="four.tnum" horiz-adv-x="560" 
d="M357 0v170h-314v51l307 454h63v-455h95v-50h-95v-170h-56zM357 220v379l-254 -379h254z" />
    <glyph glyph-name="five.tnum" horiz-adv-x="560" 
d="M244 -13q-93 0 -169 50v60q76 -57 165 -57q79 0 125 44t46 119q0 73 -47.5 114t-133.5 41q-57 0 -126 -15l44 332h299v-53h-254l-29 -223q41 9 89 9q99 0 158 -56t59 -148q0 -65 -29.5 -114.5t-80.5 -76t-116 -26.5z" />
    <glyph glyph-name="six.tnum" horiz-adv-x="560" 
d="M281 -13q-105 0 -162 78t-57 224q0 194 69.5 296.5t200.5 102.5q71 0 116 -28v-55q-23 15 -54.5 23t-65.5 8q-101 0 -154 -81.5t-55 -238.5q24 53 70.5 82t108.5 29q58 0 102.5 -28.5t68.5 -78t24 -111.5q0 -65 -28.5 -116t-76.5 -78.5t-107 -27.5zM283 38q67 0 110 47
t43 122q0 77 -41 123t-109 46q-69 0 -113 -47t-44 -121q0 -75 43 -122.5t111 -47.5z" />
    <glyph glyph-name="seven.tnum" horiz-adv-x="560" 
d="M425 622h-350v53h408v-52l-272 -623h-64z" />
    <glyph glyph-name="eight.tnum" horiz-adv-x="560" 
d="M280 -13q-65 0 -115 25t-77 68.5t-27 97.5q0 63 33.5 109.5t93.5 67.5q-50 22 -76.5 62.5t-26.5 95.5q0 51 27 91t71.5 62t98.5 22q85 0 139 -49t54 -126q0 -53 -26.5 -94t-75.5 -64q59 -20 92.5 -66.5t33.5 -108.5q0 -58 -28.5 -102t-78 -67.5t-112.5 -23.5zM280 37
q72 0 116 40.5t44 105.5t-44 105.5t-116 40.5t-116 -40.5t-44 -105.5t44 -105.5t116 -40.5zM280 377q61 0 98.5 36.5t37.5 94.5q0 57 -38 93.5t-98 36.5q-61 0 -98.5 -36.5t-37.5 -94.5q0 -57 38 -93.5t98 -36.5z" />
    <glyph glyph-name="nine.tnum" horiz-adv-x="560" 
d="M279 688q105 0 162 -78t57 -224q0 -194 -69.5 -296.5t-200.5 -102.5q-71 0 -116 28v55q23 -15 54.5 -23t65.5 -8q100 0 153.5 82t55.5 238q-24 -53 -70 -82t-109 -29q-58 0 -102.5 28.5t-68.5 78t-24 111.5q0 65 28.5 116t76.5 78.5t107 27.5zM277 637q-67 0 -110 -47
t-43 -122q0 -77 41 -123t109 -46q69 0 113 47t44 121q0 75 -43 122.5t-111 47.5z" />
    <glyph glyph-name="zero.dnom" 
d="M181 -13q-66 0 -105 53.5t-39 140.5q0 91 39.5 145t106.5 54q66 0 105 -53.5t39 -140.5q0 -91 -39.5 -145t-106.5 -54zM182 32q43 0 68 41.5t25 111.5q0 69 -25 109.5t-68 40.5t-68 -41.5t-25 -111.5q0 -69 25 -109.5t68 -40.5z" />
    <glyph glyph-name="one.dnom" 
d="M198 0v319l-113 -67v47l113 68h49v-367h-49z" />
    <glyph glyph-name="two.dnom" 
d="M49 42l111 97q43 38 61.5 67t18.5 59q0 32 -21.5 51t-56.5 19q-54 0 -100 -34v48q42 31 102 31q56 0 92 -32t36 -82q0 -38 -21.5 -75t-67.5 -76l-82 -70h181v-45h-253v42z" />
    <glyph glyph-name="three.dnom" 
d="M164 -13q-62 0 -118 37v49q55 -41 112 -41q43 0 67.5 19t24.5 53q0 32 -24 49.5t-68 17.5h-52v43h53q39 0 59.5 17t20.5 47q0 26 -21 41.5t-57 15.5q-51 0 -99 -32v48q42 29 102 29q58 0 93 -28t35 -73q0 -28 -15.5 -51t-41.5 -34q31 -10 49 -34.5t18 -58.5
q0 -51 -38 -82.5t-100 -31.5z" />
    <glyph glyph-name="four.dnom" 
d="M226 0v81h-186v42l182 244h52v-244h54v-42h-54v-81h-48zM226 123v182l-137 -182h137z" />
    <glyph glyph-name="five.dnom" 
d="M166 -13q-55 0 -109 31v50q52 -36 107 -36q43 0 66.5 20t23.5 56q0 34 -26.5 53.5t-73.5 19.5q-38 0 -83 -10l26 196h197v-45h-156l-14 -101q19 4 44 4q63 0 100.5 -31t37.5 -82q0 -56 -38.5 -90.5t-101.5 -34.5z" />
    <glyph glyph-name="six.dnom" 
d="M187 -13q-65 0 -101.5 46.5t-36.5 129.5q0 104 44 160.5t125 56.5q42 0 80 -22v-49q-38 26 -84 26q-108 0 -115 -145q33 50 98 50q56 0 90.5 -34.5t34.5 -90.5q0 -55 -38.5 -91.5t-96.5 -36.5zM188 30q36 0 59.5 23.5t23.5 59.5q0 39 -21.5 61.5t-59.5 22.5
q-37 0 -61 -23.5t-24 -58.5q0 -37 23.5 -61t59.5 -24z" />
    <glyph glyph-name="seven.dnom" 
d="M261 322h-200v45h252v-44l-162 -323h-53z" />
    <glyph glyph-name="eight.dnom" 
d="M182 -13q-61 0 -99 31t-38 80q0 33 18 58t50 36q-27 11 -41 33t-14 52q0 45 35 74t90 29t89.5 -28.5t34.5 -74.5q0 -29 -14.5 -51t-40.5 -34q32 -11 50 -35.5t18 -57.5q0 -50 -38 -81t-100 -31zM182 29q39 0 62.5 19t23.5 51q0 33 -24 53t-62 20t-61.5 -20t-23.5 -53
q0 -32 23 -51t62 -19zM182 210q34 0 53.5 18t19.5 48q0 27 -20 44.5t-53 17.5q-32 0 -52 -17.5t-20 -44.5q0 -30 19.5 -48t52.5 -18z" />
    <glyph glyph-name="nine.dnom" 
d="M177 380q65 0 101.5 -46.5t36.5 -129.5q0 -104 -44 -160.5t-125 -56.5q-42 0 -80 22v49q38 -26 84 -26q108 0 114 145q-15 -24 -40 -37t-57 -13q-56 0 -90.5 34.5t-34.5 90.5q0 55 38.5 91.5t96.5 36.5zM176 337q-36 0 -59.5 -23.5t-23.5 -59.5q0 -39 21.5 -61.5
t59.5 -22.5q37 0 61 23.5t24 58.5q0 37 -23.5 61t-59.5 24z" />
    <glyph glyph-name="zero.numr" 
d="M181 295q-66 0 -105 53.5t-39 140.5q0 91 39.5 145t106.5 54q66 0 105 -53.5t39 -140.5q0 -91 -39.5 -145t-106.5 -54zM182 340q43 0 68 41.5t25 111.5q0 69 -25 109.5t-68 40.5t-68 -41.5t-25 -111.5q0 -69 25 -109.5t68 -40.5z" />
    <glyph glyph-name="one.numr" 
d="M198 308v319l-113 -67v47l113 68h49v-367h-49z" />
    <glyph glyph-name="two.numr" 
d="M49 350l111 97q43 38 61.5 67t18.5 59q0 32 -21.5 51t-56.5 19q-54 0 -100 -34v48q42 31 102 31q56 0 92 -32t36 -82q0 -38 -21.5 -75t-67.5 -76l-82 -70h181v-45h-253v42z" />
    <glyph glyph-name="three.numr" 
d="M164 295q-62 0 -118 37v49q55 -41 112 -41q43 0 67.5 19t24.5 53q0 32 -24 49.5t-68 17.5h-52v43h53q39 0 59.5 17t20.5 47q0 26 -21 41.5t-57 15.5q-51 0 -99 -32v48q42 29 102 29q58 0 93 -28t35 -73q0 -28 -15.5 -51t-41.5 -34q31 -10 49 -34.5t18 -58.5
q0 -51 -38 -82.5t-100 -31.5z" />
    <glyph glyph-name="four.numr" 
d="M226 308v81h-186v42l182 244h52v-244h54v-42h-54v-81h-48zM226 431v182l-137 -182h137z" />
    <glyph glyph-name="five.numr" 
d="M166 295q-55 0 -109 31v50q52 -36 107 -36q43 0 66.5 20t23.5 56q0 34 -26.5 53.5t-73.5 19.5q-38 0 -83 -10l26 196h197v-45h-156l-14 -101q19 4 44 4q63 0 100.5 -31t37.5 -82q0 -56 -38.5 -90.5t-101.5 -34.5z" />
    <glyph glyph-name="six.numr" 
d="M187 295q-65 0 -101.5 46.5t-36.5 129.5q0 104 44 160.5t125 56.5q42 0 80 -22v-49q-38 26 -84 26q-108 0 -115 -145q33 50 98 50q56 0 90.5 -34.5t34.5 -90.5q0 -55 -38.5 -91.5t-96.5 -36.5zM188 338q36 0 59.5 23.5t23.5 59.5q0 39 -21.5 61.5t-59.5 22.5
q-37 0 -61 -23.5t-24 -58.5q0 -37 23.5 -61t59.5 -24z" />
    <glyph glyph-name="seven.numr" 
d="M261 630h-200v45h252v-44l-162 -323h-53z" />
    <glyph glyph-name="eight.numr" 
d="M182 295q-61 0 -99 31t-38 80q0 33 18 58t50 36q-27 11 -41 33t-14 52q0 45 35 74t90 29t89.5 -28.5t34.5 -74.5q0 -29 -14.5 -51t-40.5 -34q32 -11 50 -35.5t18 -57.5q0 -50 -38 -81t-100 -31zM182 337q39 0 62.5 19t23.5 51q0 33 -24 53t-62 20t-61.5 -20t-23.5 -53
q0 -32 23 -51t62 -19zM182 518q34 0 53.5 18t19.5 48q0 27 -20 44.5t-53 17.5q-32 0 -52 -17.5t-20 -44.5q0 -30 19.5 -48t52.5 -18z" />
    <glyph glyph-name="nine.numr" 
d="M177 688q65 0 101.5 -46.5t36.5 -129.5q0 -104 -44 -160.5t-125 -56.5q-42 0 -80 22v49q38 -26 84 -26q108 0 114 145q-15 -24 -40 -37t-57 -13q-56 0 -90.5 34.5t-34.5 90.5q0 55 38.5 91.5t96.5 36.5zM176 645q-36 0 -59.5 -23.5t-23.5 -59.5q0 -39 21.5 -61.5
t59.5 -22.5q37 0 61 23.5t24 58.5q0 37 -23.5 61t-59.5 24z" />
    <glyph glyph-name="periodcentered.loclCAT" horiz-adv-x="198" 
d="M99 236q-19 0 -32 13t-13 32q0 20 13 32.5t32 12.5q20 0 32.5 -12.5t12.5 -32.5q0 -19 -12.5 -32t-32.5 -13z" />
    <glyph glyph-name="periodcentered.loclCAT.cap" horiz-adv-x="198" 
d="M99 319q-19 0 -32 13t-13 32q0 20 13 32.5t32 12.5q20 0 32.5 -12.5t12.5 -32.5q0 -19 -12.5 -32t-32.5 -13z" />
    <glyph glyph-name="IJacute" horiz-adv-x="634" 
d="M75 0v675h59v-675h-59zM372 -13q-66 0 -125 33v57q58 -37 124 -37q68 0 101 39t33 118v478h59v-470q0 -107 -49 -162.5t-143 -55.5zM70 745l124 138h73l-137 -138h-60zM500 745l124 138h73l-137 -138h-60z" />
    <glyph glyph-name="ijacute" horiz-adv-x="388" 
d="M68 512h58v-512h-58v512zM190 -203q-34 0 -56 11v50q22 -11 50 -11q38 0 58 27.5t20 80.5v557h58v-551q0 -79 -33.5 -121.5t-96.5 -42.5zM118 596h-55l103 149h69zM312 596h-55l103 149h69z" />
    <glyph glyph-name="uni0327.cap" horiz-adv-x="0" 
d="M26 16l-23 -90q48 -1 76.5 -24t28.5 -61q0 -44 -33.5 -71t-87.5 -27q-33 0 -61 11v43q30 -11 60 -11q32 0 52 15.5t20 38.5q0 48 -77 48h-29l31 128h43z" />
    <glyph glyph-name="uni0326.cap" horiz-adv-x="0" 
d="M-89 -251q61 88 61 187h57q0 -99 -69 -187h-49z" />
    <glyph glyph-name="acutecomb.cap" horiz-adv-x="0" 
d="M-34 745l124 138h73l-137 -138h-60z" />
    <glyph glyph-name="gravecomb.cap" horiz-adv-x="0" 
d="M-29 745l-137 138h73l124 -138h-60z" />
    <glyph glyph-name="uni0302.cap" horiz-adv-x="0" 
d="M88 745l-88 98l-88 -98h-62l120 138h60l120 -138h-62z" />
    <glyph glyph-name="tildecomb.cap" horiz-adv-x="0" 
d="M71 742q-25 1 -44 12t-35.5 26t-31 26t-30.5 12q-34 0 -34 -57v-17h-50v19q0 48 22 74.5t61 26.5q25 -1 44 -12t35.5 -26t31 -26t30.5 -12q34 0 34 57v17h50v-19q0 -48 -22 -74.5t-61 -26.5z" />
    <glyph glyph-name="uni030C.cap" horiz-adv-x="0" 
d="M-150 883h63l87 -98l87 98h63l-120 -138h-60z" />
    <glyph glyph-name="uni0308.cap" horiz-adv-x="0" 
d="M-98 745q-18 0 -30.5 12.5t-12.5 30.5t12.5 30.5t30.5 12.5t30.5 -12.5t12.5 -30.5t-12.5 -30.5t-30.5 -12.5zM98 745q-18 0 -30.5 12.5t-12.5 30.5t12.5 30.5t30.5 12.5t30.5 -12.5t12.5 -30.5t-12.5 -30.5t-30.5 -12.5z" />
    <glyph glyph-name="uni0306.cap" horiz-adv-x="0" 
d="M0 732q-62 0 -98 34t-36 95h49q0 -40 22.5 -62.5t62.5 -22.5q42 0 63.5 22t21.5 63h49q0 -59 -37 -94t-97 -35z" />
    <glyph glyph-name="uni030A.cap" horiz-adv-x="0" 
d="M0 723q-39 0 -65.5 25t-26.5 63q0 39 26 63.5t66 24.5q39 0 65.5 -25t26.5 -63t-26.5 -63t-65.5 -25zM0 760q22 0 36 14.5t14 36.5t-14 36.5t-36 14.5t-36 -14.5t-14 -36.5t14 -36.5t36 -14.5z" />
    </font>
</defs>
</svg>
